<svg id="Layer_1" data-name="Layer 1" xmlns="http://www.w3.org/2000/svg" viewBox="0 0 34 34">
  <title>glifi</title>
  <rect width="34" height="34" style="fill: #fff"/>
  <path d="M4.49,17a12.77,12.77,0,0,1,.61-3.19,12,12,0,0,1,6-7,11.56,11.56,0,0,1,2.88-1,11.16,11.16,0,0,1,3-.2,11,11,0,0,1,2.9.57,10.84,10.84,0,0,1,2.6,1.28,11,11,0,0,1,2.14,1.88,10.86,10.86,0,0,1,1.55,2.33,10.23,10.23,0,0,1,1,5.3,9.93,9.93,0,0,1-.53,2.6,9.72,9.72,0,0,1-1.17,2.32,9.42,9.42,0,0,1-1.7,1.91,9.78,9.78,0,0,1-2.09,1.37A9.48,9.48,0,0,1,19.4,26a9.3,9.3,0,0,1-2.41.13,8.9,8.9,0,0,1-2.3-.49,8.48,8.48,0,0,1-2-1.06A8.61,8.61,0,0,1,11,23a8.51,8.51,0,0,1-1.19-1.86,8.09,8.09,0,0,1-.65-2.06A7.88,7.88,0,0,1,9,17a7.69,7.69,0,0,1,1.39-3.79,7.6,7.6,0,0,1,1.34-1.43,7.26,7.26,0,0,1,1.63-1,7.16,7.16,0,0,1,1.78-.54A6.87,6.87,0,0,1,17,10.18a6.69,6.69,0,0,1,3.22,1.24,6.3,6.3,0,0,1,1.2,1.16A6.16,6.16,0,0,1,22.24,14a5.86,5.86,0,0,1,.42,1.51,5.54,5.54,0,0,1,0,1.52,6.06,6.06,0,0,1-.38,1.42,5.26,5.26,0,0,1-1.69,2.2,5,5,0,0,1-1.15.64,4.81,4.81,0,0,1-2.47.29,5,5,0,0,1-1.12-.34,4.45,4.45,0,0,1-1-.6,4,4,0,0,1-.73-.8,3.64,3.64,0,0,1-.47-.92A3.69,3.69,0,0,1,13.58,17a3.72,3.72,0,0,1,.3-.83,3.44,3.44,0,0,1,.49-.69A3.12,3.12,0,0,1,15,15a2.74,2.74,0,0,1,.69-.29,2.71,2.71,0,0,1,.69-.08,2.6,2.6,0,0,1,.63.11,2.25,2.25,0,0,1,.54.26,1.83,1.83,0,0,1,.41.37,1.59,1.59,0,0,1,.37.88,1.46,1.46,0,0,1,0,.42,1.16,1.16,0,0,1-.14.34,1.79,1.79,0,0,1-.22.25,1.26,1.26,0,0,1-.26.13.74.74,0,0,1-.25,0,.71.71,0,0,1-.22-.07,1,1,0,0,1-.14-.15A1.67,1.67,0,0,1,17,17a1.67,1.67,0,0,0,0-.18.64.64,0,0,0-.14-.15.58.58,0,0,0-.21-.07.72.72,0,0,0-.25,0,.91.91,0,0,0-.26.13,1.31,1.31,0,0,0-.22.25,1.17,1.17,0,0,0-.15.34,1.93,1.93,0,0,0,0,.42,1.56,1.56,0,0,0,.11.45,2,2,0,0,0,.26.43,1.78,1.78,0,0,0,.4.37,2.45,2.45,0,0,0,.54.26,2.68,2.68,0,0,0,.64.11,2.71,2.71,0,0,0,.69-.08A2.68,2.68,0,0,0,19,19a2.91,2.91,0,0,0,.62-.49,3.4,3.4,0,0,0,.48-.69,3.28,3.28,0,0,0,.3-.83,3.42,3.42,0,0,0-.13-1.89,3.84,3.84,0,0,0-1.19-1.72,4.45,4.45,0,0,0-1-.6A5.12,5.12,0,0,0,17,12.45a4.52,4.52,0,0,0-1.22,0,4.6,4.6,0,0,0-1.24.31,4.82,4.82,0,0,0-1.15.64,5,5,0,0,0-1,1,5.33,5.33,0,0,0-.71,1.23A5.61,5.61,0,0,0,11.31,17a6,6,0,0,0,0,1.52A6.79,6.79,0,0,0,11.74,20a6.16,6.16,0,0,0,.83,1.39,6.6,6.6,0,0,0,1.2,1.16,6.88,6.88,0,0,0,1.51.82,6.59,6.59,0,0,0,1.71.42,7,7,0,0,0,1.82-.05,7.16,7.16,0,0,0,1.78-.54,7.27,7.27,0,0,0,3-2.44A7.21,7.21,0,0,0,24.49,19,7.63,7.63,0,0,0,25,17a8.32,8.32,0,0,0-.09-2.11,8.09,8.09,0,0,0-.65-2.06A8.51,8.51,0,0,0,23,11,8.86,8.86,0,0,0,19.3,8.4,9,9,0,0,0,17,7.91a9.32,9.32,0,0,0-4.73.89,9.6,9.6,0,0,0-2.1,1.37A9.8,9.8,0,0,0,7.3,14.4,9.93,9.93,0,0,0,6.77,17a10.25,10.25,0,0,0,.16,2.7,10.64,10.64,0,0,0,.88,2.6,10.86,10.86,0,0,0,1.55,2.33,10.69,10.69,0,0,0,2.14,1.88A11.15,11.15,0,0,0,17,28.36a11.16,11.16,0,0,0,3-.2,11.42,11.42,0,0,0,2.88-1,12,12,0,0,0,6-7A12.34,12.34,0,0,0,29.49,17" style="fill: none;stroke: #231f20;stroke-miterlimit: 10;stroke-width: 0.25px;stroke-dasharray: 2,1"/>
</svg>
