<svg id="Layer_1" data-name="Layer 1" xmlns="http://www.w3.org/2000/svg" viewBox="0 0 34 34">
  <title>glifi</title>
  <rect width="34" height="34" style="fill: #fff"/>
  <path id="ibrido" d="M17,27.13a9.88,9.88,0,0,1-4.78-1.84,9.75,9.75,0,0,1-1.79-1.72A9.27,9.27,0,0,1,9.2,21.5,8.53,8.53,0,0,1,8.56,17a8.31,8.31,0,0,1,.56-2.11,8.1,8.1,0,0,1,1.06-1.83,7.55,7.55,0,0,1,1.45-1.43,7.15,7.15,0,0,1,3.55-1.43,6.9,6.9,0,0,1,1.82.05,6.8,6.8,0,0,1,1.68.5,6.09,6.09,0,0,1,2.5,2.07,5.68,5.68,0,0,1,.69,1.37,5.12,5.12,0,0,1,.29,1.43A4.87,4.87,0,0,1,22.07,17a5.09,5.09,0,0,1-.45,1.24,4.62,4.62,0,0,1-.72,1A4.22,4.22,0,0,1,20,20a3.7,3.7,0,0,1-1,.43,3.64,3.64,0,0,1-2,0,3.3,3.3,0,0,1-.8-.39,3,3,0,0,1-.61-.55,2.69,2.69,0,0,1-.38-.65,2.35,2.35,0,0,1-.16-.66,2.08,2.08,0,0,1,0-.62,2,2,0,0,1,.21-.51,1.31,1.31,0,0,1,.72-.56,1.67,1.67,0,0,1,.37,0,1.69,1.69,0,0,1,.32.11s.19.2.21.22S17,17,17,17s.06.25.07.27.17.19.21.22a1.69,1.69,0,0,0,.32.11,1.67,1.67,0,0,0,.37,0,1.31,1.31,0,0,0,.72-.56,2,2,0,0,0,.21-.51,2.08,2.08,0,0,0,.05-.62,2.35,2.35,0,0,0-.16-.66,2.69,2.69,0,0,0-.38-.65A3,3,0,0,0,17.8,14a3.3,3.3,0,0,0-.8-.39,3.64,3.64,0,0,0-2,0A3.7,3.7,0,0,0,14,14a4.22,4.22,0,0,0-.92.73,4.62,4.62,0,0,0-.72,1A5.09,5.09,0,0,0,11.93,17a4.87,4.87,0,0,0-.09,1.38,5.12,5.12,0,0,0,.29,1.43,5.68,5.68,0,0,0,.69,1.37,6.09,6.09,0,0,0,2.5,2.07,6.8,6.8,0,0,0,1.68.5,6.9,6.9,0,0,0,1.82.05,7.15,7.15,0,0,0,3.55-1.43,7.55,7.55,0,0,0,1.45-1.43,8.1,8.1,0,0,0,1.06-1.83A8.31,8.31,0,0,0,25.44,17a8.53,8.53,0,0,0-.64-4.5,9.27,9.27,0,0,0-1.23-2.07,9.51,9.51,0,0,0-4-2.94A9.91,9.91,0,0,0,17,6.87" style="fill: none;stroke: #231f20;stroke-miterlimit: 10;stroke-width: 0.25px"/>
</svg>
