<svg id="Layer_1" data-name="Layer 1" xmlns="http://www.w3.org/2000/svg" viewBox="0 0 34 34">
  <title>glifi</title>
  <rect width="34" height="34" style="fill: #fff"/>
  <g>
    <path d="M21.71,19.25h0c-.56-.17-1.56,0-2.58-3h0a2.23,2.23,0,0,0-2-1.52h0c-3.14-.18-3.07-1.1-3.39-1.6h0a.4.4,0,0,0-.35-.2.43.43,0,0,0-.43.43.44.44,0,0,0,.2.35h0c.5.32,1.42.25,1.6,3.4h0A2.25,2.25,0,0,0,17,19.25a2,2,0,0,0,.43,0h0c3.07-.6,3.43.33,3.86.74h0a.44.44,0,0,0,.29.11.42.42,0,0,0,.42-.42A.41.41,0,0,0,21.71,19.25Z" style="fill: #231f20"/>
    <path d="M21.55,19.63a5.9,5.9,0,0,0,.71-1.22A5.52,5.52,0,0,0,22.63,17a5.88,5.88,0,0,0,0-1.51A5.72,5.72,0,0,0,22.2,14a6.28,6.28,0,0,0-.82-1.38,6.44,6.44,0,0,0-1.19-1.14,6.35,6.35,0,0,0-1.49-.82,6.5,6.5,0,0,0-1.7-.41,7.24,7.24,0,0,0-1.8,0,6.89,6.89,0,0,0-1.76.54,6.76,6.76,0,0,0-1.61,1,6.92,6.92,0,0,0-1.33,1.42A7.4,7.4,0,0,0,9.57,15a7.81,7.81,0,0,0-.36,4.08,8,8,0,0,0,.64,2,8.43,8.43,0,0,0,2.83,3.34,9,9,0,0,0,2,1.05,9.07,9.07,0,0,0,7-.4,9.63,9.63,0,0,0,2.08-1.35,10.1,10.1,0,0,0,1.68-1.89,9.59,9.59,0,0,0,1.15-2.31A9.71,9.71,0,0,0,27.13,17,10.43,10.43,0,0,0,27,14.33a10.75,10.75,0,0,0-.87-2.58,10.69,10.69,0,0,0-3.66-4.17,10.87,10.87,0,0,0-2.58-1.27A11,11,0,0,0,17,5.74,11.37,11.37,0,0,0,14,6a11,11,0,0,0-2.86,1A11.67,11.67,0,0,0,8.64,8.64a12.08,12.08,0,0,0-3.42,5.2A12.53,12.53,0,0,0,4.62,17a12.26,12.26,0,0,0,.24,3.25A12.65,12.65,0,0,0,6,23.38a13,13,0,0,0,1.9,2.77,12.46,12.46,0,0,0,2.58,2.22A13.2,13.2,0,0,0,17,30.51" style="fill: none;stroke: #231f20;stroke-miterlimit: 10;stroke-width: 0.25px"/>
    <path d="M17,3.49a13.2,13.2,0,0,1,6.57,2.14,12.46,12.46,0,0,1,2.58,2.22,13,13,0,0,1,1.9,2.77,12.65,12.65,0,0,1,1.09,3.13A12.26,12.26,0,0,1,29.38,17a12.53,12.53,0,0,1-.6,3.16,12.08,12.08,0,0,1-3.42,5.2,11.67,11.67,0,0,1-2.54,1.71,11,11,0,0,1-2.86,1,11.37,11.37,0,0,1-3,.21,11,11,0,0,1-2.86-.57,10.87,10.87,0,0,1-2.58-1.27A10.69,10.69,0,0,1,7.9,22.25,10.75,10.75,0,0,1,7,19.67,10.43,10.43,0,0,1,6.87,17a9.71,9.71,0,0,1,.53-2.57,9.59,9.59,0,0,1,1.15-2.31,10.1,10.1,0,0,1,1.68-1.89,9.63,9.63,0,0,1,2.08-1.35,9.2,9.2,0,0,1,2.31-.76,8.88,8.88,0,0,1,4.66.36,9,9,0,0,1,2,1,8.43,8.43,0,0,1,2.83,3.34,8,8,0,0,1,.64,2A7.81,7.81,0,0,1,24.43,19a7.4,7.4,0,0,1-.93,1.76,6.92,6.92,0,0,1-1.33,1.42,6.76,6.76,0,0,1-1.61,1,6.89,6.89,0,0,1-1.76.54,7.24,7.24,0,0,1-1.8,0,6.5,6.5,0,0,1-1.7-.41,6.35,6.35,0,0,1-1.49-.82,6.44,6.44,0,0,1-1.19-1.14A6.28,6.28,0,0,1,11.8,20a5.72,5.72,0,0,1-.42-1.49,5.88,5.88,0,0,1,0-1.51,5.52,5.52,0,0,1,.37-1.41,5.9,5.9,0,0,1,.71-1.22,5.45,5.45,0,0,1,1-.95" style="fill: none;stroke: #231f20;stroke-miterlimit: 10;stroke-width: 0.25px"/>
  </g>
</svg>
