<svg id="Layer_1" data-name="Layer 1" xmlns="http://www.w3.org/2000/svg" viewBox="0 0 34 34">
  <title>glifi</title>
  <rect width="34" height="34" style="fill: #fff"/>
  <path id="romanzo-racconti-cornice" d="M5.91,22.46a6.1,6.1,0,0,1,.3-1.53,6.18,6.18,0,0,1,.68-1.36,5.3,5.3,0,0,1,1-1.12,5.18,5.18,0,0,1,1.22-.81,5.08,5.08,0,0,1,1.36-.46,5.57,5.57,0,0,1,1.41-.08,5.15,5.15,0,0,1,1.35.28,5.21,5.21,0,0,1,1.2.61,4.93,4.93,0,0,1,1,.89,5,5,0,0,1,.7,1.08,5.26,5.26,0,0,1,.39,1.2,4.69,4.69,0,0,1,.05,1.24,4.77,4.77,0,0,1-.25,1.18,4.92,4.92,0,0,1-.55,1,4.5,4.5,0,0,1-.78.85,4.07,4.07,0,0,1-1,.59,3.91,3.91,0,0,1-1,.32,4.19,4.19,0,0,1-1.06,0,4.25,4.25,0,0,1-1-.24A4.17,4.17,0,0,1,10,25.7,3.48,3.48,0,0,1,9.32,25a4,4,0,0,1-.49-.81,4.08,4.08,0,0,1-.25-.89,3.79,3.79,0,0,1,0-.89,2.91,2.91,0,0,1,.22-.83,2.69,2.69,0,0,1,.41-.72,2.93,2.93,0,0,1,1.24-.95,2.64,2.64,0,0,1,.72-.19,2.89,2.89,0,0,1,.72,0,2.81,2.81,0,0,1,.66.2,2.39,2.39,0,0,1,.56.34,2.11,2.11,0,0,1,.43.47,2,2,0,0,1,.36,1.64,1.58,1.58,0,0,1-.17.49,1.68,1.68,0,0,1-.28.4,1.58,1.58,0,0,1-.36.29,1.27,1.27,0,0,1-.4.17,1.13,1.13,0,0,1-.4,0,1.21,1.21,0,0,1-.38-.06,1.11,1.11,0,0,1-.31-.15,1,1,0,0,1-.24-.21,1.83,1.83,0,0,1-.16-.26,1.22,1.22,0,0,1-.06-.26.63.63,0,0,1,0-.24.6.6,0,0,1,.08-.2.64.64,0,0,1,.13-.15l.15-.08h.15l.12,0a.76.76,0,0,1,.09.09l0,.1a.61.61,0,0,0,0,.11.32.32,0,0,0,.08.09.42.42,0,0,0,.12,0,.39.39,0,0,0,.15,0,.44.44,0,0,0,.15-.08.58.58,0,0,0,.13-.14.93.93,0,0,0,.09-.2,1,1,0,0,0,0-.24.88.88,0,0,0-.06-.27,1.65,1.65,0,0,0-.15-.25,2.5,2.5,0,0,0-.24-.22,2.37,2.37,0,0,0-.32-.15,2.2,2.2,0,0,0-.37-.06,1.92,1.92,0,0,0-.41,0,2.28,2.28,0,0,0-.4.17,1.64,1.64,0,0,0-.35.3,1.71,1.71,0,0,0-.29.4,2.17,2.17,0,0,0-.17.49,2.41,2.41,0,0,0,0,.54,2.8,2.8,0,0,0,.12.56,2.31,2.31,0,0,0,.28.54,2.08,2.08,0,0,0,.43.46,2.3,2.3,0,0,0,.56.35,2.81,2.81,0,0,0,.66.2,2.89,2.89,0,0,0,.72,0,2.64,2.64,0,0,0,.72-.19,2.68,2.68,0,0,0,.68-.38,3.29,3.29,0,0,0,1-1.29,3.37,3.37,0,0,0,.21-.83,3,3,0,0,0,0-.89,3.47,3.47,0,0,0-.74-1.7,3.48,3.48,0,0,0-.71-.67,3.4,3.4,0,0,0-.88-.48,3.88,3.88,0,0,0-2.07-.2,3.91,3.91,0,0,0-1,.32,4.07,4.07,0,0,0-.95.59,4.86,4.86,0,0,0-.78.85,4.47,4.47,0,0,0-.54,1,4.29,4.29,0,0,0-.26,1.18,4.62,4.62,0,0,0,.06,1.23,4.85,4.85,0,0,0,.38,1.21A5,5,0,0,0,8.39,26a5.22,5.22,0,0,0,1,.89,5.28,5.28,0,0,0,1.21.61,5.33,5.33,0,0,0,2.75.2,6.14,6.14,0,0,0,1.37-.46,5.39,5.39,0,0,0,1.22-.81,5.63,5.63,0,0,0,1.66-2.49,6,6,0,0,0,.31-1.52,4.71,4.71,0,0,1,.27-1.29A4.81,4.81,0,0,1,18.75,20,4.49,4.49,0,0,1,19.6,19a4.74,4.74,0,0,1,1-.67A4.53,4.53,0,0,1,21.79,18,4.2,4.2,0,0,1,23,17.93a4.15,4.15,0,0,1,1.12.25,4.24,4.24,0,0,1,1,.52,4.34,4.34,0,0,1,.8.74,3.92,3.92,0,0,1,.56.91,3.44,3.44,0,0,1,.3,1,4.19,4.19,0,0,1,0,1,4.25,4.25,0,0,1-.23.95,3.93,3.93,0,0,1-.46.83,3.34,3.34,0,0,1-.64.66,3.11,3.11,0,0,1-.76.45,2.87,2.87,0,0,1-.83.23,3.38,3.38,0,0,1-.84,0,3.24,3.24,0,0,1-.77-.21,3.17,3.17,0,0,1-.67-.39,2.65,2.65,0,0,1-.52-.54,2.4,2.4,0,0,1-.35-.62,2.34,2.34,0,0,1-.16-.67,2.07,2.07,0,0,1,0-.66,2.52,2.52,0,0,1,.18-.61,2.48,2.48,0,0,1,.33-.51,2.21,2.21,0,0,1,.43-.38,1.86,1.86,0,0,1,.49-.24,1.78,1.78,0,0,1,.51-.1,2,2,0,0,1,.49.05,1.59,1.59,0,0,1,.43.16,1.87,1.87,0,0,1,.35.26,1.85,1.85,0,0,1,.24.33,1.7,1.7,0,0,1,.14.35,1.37,1.37,0,0,1,0,.35,1.07,1.07,0,0,1-.06.32,1.61,1.61,0,0,1-.15.26,1.07,1.07,0,0,1-.19.18.9.9,0,0,1-.22.11.89.89,0,0,1-.22,0,1.06,1.06,0,0,1-.19,0L23,22.81a.51.51,0,0,1-.09-.13.6.6,0,0,1,0-.12.42.42,0,0,1,0-.12.6.6,0,0,1,.08-.08l.07-.08a.28.28,0,0,0,0-.11.79.79,0,0,0,0-.13.47.47,0,0,0-.09-.12.38.38,0,0,0-.14-.09.58.58,0,0,0-.19,0,.89.89,0,0,0-.22,0,1,1,0,0,0-.21.1.9.9,0,0,0-.2.19,1.13,1.13,0,0,0-.21.57,1,1,0,0,0,0,.35,1.2,1.2,0,0,0,.13.36,1.26,1.26,0,0,0,.25.32,1.46,1.46,0,0,0,.34.26,2.11,2.11,0,0,0,.44.17,1.91,1.91,0,0,0,.48,0,2.18,2.18,0,0,0,.51-.09,1.89,1.89,0,0,0,.49-.25,1.73,1.73,0,0,0,.43-.38,2.23,2.23,0,0,0,.33-.51,2.81,2.81,0,0,0,.19-.6,2.9,2.9,0,0,0,0-.66,2.75,2.75,0,0,0-.17-.67,2.56,2.56,0,0,0-.34-.63,3,3,0,0,0-.53-.53,2.56,2.56,0,0,0-.66-.39,3,3,0,0,0-.78-.21,2.89,2.89,0,0,0-.83,0,3.41,3.41,0,0,0-.83.23,3.57,3.57,0,0,0-.77.46,3.65,3.65,0,0,0-.64.66,3.43,3.43,0,0,0-.45.82,3.47,3.47,0,0,0-.23.95,3.81,3.81,0,0,0,0,1,4.5,4.5,0,0,0,.3,1,3.86,3.86,0,0,0,.56.9,4,4,0,0,0,.8.74,4.1,4.1,0,0,0,1,.53A4.78,4.78,0,0,0,23,26.8a4.67,4.67,0,0,0,1.18-.05,4.41,4.41,0,0,0,1.15-.37,4.57,4.57,0,0,0,1-.66,5.47,5.47,0,0,0,.85-.94,4.78,4.78,0,0,0,.58-1.15,5.1,5.1,0,0,0,.28-1.3,5.3,5.3,0,0,0-.51-2.65,5.32,5.32,0,0,0-.77-1.18,5.84,5.84,0,0,0-1.08-1A5.59,5.59,0,0,0,23,16.6a5.58,5.58,0,0,0-1.52.09,6.08,6.08,0,0,0-1.47.5,5.55,5.55,0,0,1-1.47.5,6,6,0,0,1-1.52.1,5.49,5.49,0,0,1-1.46-.3,5.79,5.79,0,0,1-1.32-.65,5.4,5.4,0,0,1-1.07-.95,5.32,5.32,0,0,1-.77-1.18,5.19,5.19,0,0,1-.44-1.31,5.57,5.57,0,0,1-.07-1.35,5.11,5.11,0,0,1,.27-1.29,5.2,5.2,0,0,1,.59-1.15,4.76,4.76,0,0,1,.85-.94,5,5,0,0,1,1-.67,4.79,4.79,0,0,1,1.15-.36,4.25,4.25,0,0,1,1.18,0A4.32,4.32,0,0,1,18,7.84a4.45,4.45,0,0,1,1,.52,4.07,4.07,0,0,1,.8.75,4.38,4.38,0,0,1,.56.9,3.87,3.87,0,0,1,.29,1,3.73,3.73,0,0,1,0,1,3.39,3.39,0,0,1-.23.95,3.2,3.2,0,0,1-.46.83,3.34,3.34,0,0,1-.64.66,3.28,3.28,0,0,1-.76.46,3.54,3.54,0,0,1-.83.23,3.84,3.84,0,0,1-.83,0,3.32,3.32,0,0,1-.78-.21,3.17,3.17,0,0,1-.67-.39A3,3,0,0,1,15,14a3.18,3.18,0,0,1-.35-.62,2.72,2.72,0,0,1-.16-.67,2.9,2.9,0,0,1,0-.66,2.16,2.16,0,0,1,.19-.61,2.14,2.14,0,0,1,.32-.5,2.62,2.62,0,0,1,.43-.39,2.47,2.47,0,0,1,.49-.24,2,2,0,0,1,1-.05,1.59,1.59,0,0,1,.43.16,1.87,1.87,0,0,1,.35.26A1.46,1.46,0,0,1,18,11a1.28,1.28,0,0,1,.14.35,1.38,1.38,0,0,1,0,.35,1.5,1.5,0,0,1-.07.32.82.82,0,0,1-.34.44.65.65,0,0,1-.22.11.82.82,0,0,1-.21,0,.53.53,0,0,1-.19,0l-.15-.09a.62.62,0,0,1-.08-.12.35.35,0,0,1,0-.13s0-.11,0-.12l.08-.08.08-.08a.81.81,0,0,0,0-.11.35.35,0,0,0,0-.13.62.62,0,0,0-.08-.12.54.54,0,0,0-.15-.09.53.53,0,0,0-.19,0,.82.82,0,0,0-.21,0,.88.88,0,0,0-.22.1,1.75,1.75,0,0,0-.2.19,1.08,1.08,0,0,0-.14.26,1.5,1.5,0,0,0-.07.32,2.26,2.26,0,0,0,0,.35,1.28,1.28,0,0,0,.14.35,1.22,1.22,0,0,0,.24.32,1.52,1.52,0,0,0,.35.26,2,2,0,0,0,.43.17,2,2,0,0,0,.49,0,2.38,2.38,0,0,0,.51-.09,2.47,2.47,0,0,0,.49-.24,2.62,2.62,0,0,0,.43-.39,2.2,2.2,0,0,0,.32-.51,2,2,0,0,0,.19-.6,2.9,2.9,0,0,0,0-.66,2.72,2.72,0,0,0-.16-.67,3.25,3.25,0,0,0-.35-.63,2.9,2.9,0,0,0-.52-.53,2.8,2.8,0,0,0-.67-.39,3.12,3.12,0,0,0-1.61-.21,3.54,3.54,0,0,0-.83.23,3.28,3.28,0,0,0-.76.46,3.09,3.09,0,0,0-.64.66,3.53,3.53,0,0,0-.46.83,3.32,3.32,0,0,0-.23.94,3.81,3.81,0,0,0,0,1,4,4,0,0,0,.29,1,4.66,4.66,0,0,0,.56.9,4,4,0,0,0,.8.74,4.1,4.1,0,0,0,1,.53,4.32,4.32,0,0,0,1.12.25,4.67,4.67,0,0,0,1.18-.05A4.41,4.41,0,0,0,19.29,16a4.57,4.57,0,0,0,1-.66,4.76,4.76,0,0,0,.85-.94,5.2,5.2,0,0,0,.59-1.15A5.09,5.09,0,0,0,22,12a5.15,5.15,0,0,0-.5-2.65,5.75,5.75,0,0,0-.78-1.18,5.4,5.4,0,0,0-1.07-1,5.82,5.82,0,0,0-1.32-.66,5.48,5.48,0,0,0-1.46-.29,5.56,5.56,0,0,0-1.52.09,6.38,6.38,0,0,0-1.47.5" style="fill: none;stroke: #231f20;stroke-miterlimit: 10;stroke-width: 0.25px"/>
</svg>
