<svg id="Layer_1" data-name="Layer 1" xmlns="http://www.w3.org/2000/svg" viewBox="0 0 34 34">
  <title>glifi</title>
  <rect width="34" height="34" style="fill: #fff"/>
  <path d="M4.5,17a12.32,12.32,0,0,1,2-6.06,11.82,11.82,0,0,1,4.63-4.11,11.56,11.56,0,0,1,2.88-1,11.16,11.16,0,0,1,3-.2,10.82,10.82,0,0,1,2.89.57,10.94,10.94,0,0,1,4.74,3.16,10.41,10.41,0,0,1,2.43,4.93,10.18,10.18,0,0,1-.36,5.3,10.1,10.1,0,0,1-1.17,2.32,9.42,9.42,0,0,1-1.7,1.91,9.6,9.6,0,0,1-2.1,1.37,9.32,9.32,0,0,1-4.73.89,8.9,8.9,0,0,1-2.3-.49,8.54,8.54,0,0,1-2.06-1.06A8.91,8.91,0,0,1,11,23a8.31,8.31,0,0,1-1.84-3.92A7.88,7.88,0,0,1,9.05,17a8,8,0,0,1,.45-2,7.56,7.56,0,0,1,.94-1.78,7.29,7.29,0,0,1,1.34-1.43,7.19,7.19,0,0,1,1.62-1,7.1,7.1,0,0,1,1.79-.54A6.87,6.87,0,0,1,17,10.18a6.66,6.66,0,0,1,1.72.42,6.32,6.32,0,0,1,2.7,2A6.16,6.16,0,0,1,22.25,14a5.86,5.86,0,0,1,.42,1.51,6,6,0,0,1,0,1.52,5.6,5.6,0,0,1-.37,1.42,5.37,5.37,0,0,1-.72,1.23,5.24,5.24,0,0,1-1,1,5.08,5.08,0,0,1-1.16.64,4.54,4.54,0,0,1-1.23.31,4.59,4.59,0,0,1-1.23,0,5.28,5.28,0,0,1-1.13-.34,4.63,4.63,0,0,1-.95-.6,4,4,0,0,1-.73-.8,3.64,3.64,0,0,1-.47-.92,4,4,0,0,1-.2-1,3.58,3.58,0,0,1,.07-.93,3.28,3.28,0,0,1,.3-.83,3.08,3.08,0,0,1,.49-.69A3.12,3.12,0,0,1,15,15a2.68,2.68,0,0,1,.68-.29,2.82,2.82,0,0,1,.69-.08,2.59,2.59,0,0,1,.64.11,2.25,2.25,0,0,1,.54.26,2.08,2.08,0,0,1,.41.37,2.46,2.46,0,0,1,.26.43,1.93,1.93,0,0,1,.1.45,1.46,1.46,0,0,1,0,.42,1.51,1.51,0,0,1-.14.34,1.84,1.84,0,0,1-.23.25,1,1,0,0,1-.25.13.8.8,0,0,1-.26,0,.65.65,0,0,1-.21-.07,1,1,0,0,1-.14-.15A1.67,1.67,0,0,1,17,17a1.67,1.67,0,0,0-.05-.18,1,1,0,0,0-.14-.15.65.65,0,0,0-.21-.07.8.8,0,0,0-.26,0,1,1,0,0,0-.25.13,1.84,1.84,0,0,0-.23.25,1.51,1.51,0,0,0-.14.34,1.46,1.46,0,0,0,0,.42,1.93,1.93,0,0,0,.1.45,2.46,2.46,0,0,0,.26.43,2.08,2.08,0,0,0,.41.37,2.25,2.25,0,0,0,.54.26,2.59,2.59,0,0,0,.64.11,2.82,2.82,0,0,0,.69-.08A2.68,2.68,0,0,0,19,19a3.12,3.12,0,0,0,.61-.49,3.08,3.08,0,0,0,.49-.69,3.28,3.28,0,0,0,.3-.83,3.58,3.58,0,0,0,.07-.93,4,4,0,0,0-.2-1,3.64,3.64,0,0,0-.47-.92,4,4,0,0,0-.73-.8,4.63,4.63,0,0,0-.95-.6A5.28,5.28,0,0,0,17,12.45a4.59,4.59,0,0,0-1.23,0,4.54,4.54,0,0,0-1.23.31,5.08,5.08,0,0,0-1.16.64,5.24,5.24,0,0,0-1,1,5.37,5.37,0,0,0-.72,1.23A5.6,5.6,0,0,0,11.32,17a6,6,0,0,0,0,1.52A5.86,5.86,0,0,0,11.75,20a6.16,6.16,0,0,0,.83,1.39A6.56,6.56,0,0,0,17,23.82a6.87,6.87,0,0,0,1.81-.05,7.1,7.1,0,0,0,1.79-.54,7.19,7.19,0,0,0,1.62-1,7.29,7.29,0,0,0,1.34-1.43A7.56,7.56,0,0,0,24.5,19,8,8,0,0,0,25,17a7.88,7.88,0,0,0-.08-2.11A8.31,8.31,0,0,0,23,11a8.91,8.91,0,0,0-1.67-1.51A8.54,8.54,0,0,0,19.3,8.4,8.9,8.9,0,0,0,17,7.91a9.32,9.32,0,0,0-4.73.89,9.6,9.6,0,0,0-2.1,1.37,9.42,9.42,0,0,0-1.7,1.91A10.1,10.1,0,0,0,7.3,14.4a10.18,10.18,0,0,0-.36,5.3,10.83,10.83,0,0,0,7.17,8.09,10.82,10.82,0,0,0,2.89.57,11.16,11.16,0,0,0,3-.2,11.56,11.56,0,0,0,2.88-1,11.82,11.82,0,0,0,4.63-4.11,12.32,12.32,0,0,0,2-6.06" style="fill: none;stroke: #231f20;stroke-miterlimit: 10;stroke-width: 0.25px"/>
</svg>
