<svg id="Layer_1" data-name="Layer 1" xmlns="http://www.w3.org/2000/svg" xmlns:xlink="http://www.w3.org/1999/xlink" viewBox="0 0 210.16 195.68">
  <defs>
    <linearGradient id="linear-gradient" x1="1757.87" y1="934.69" x2="1785.62" y2="934.69" gradientTransform="translate(323.84 2639.89) rotate(-90) scale(1.02 1)" gradientUnits="userSpaceOnUse">
      <stop offset="0.25" stop-color="#fff"/>
      <stop offset="1" stop-color="#cecece"/>
    </linearGradient>
  </defs>
  <title>legenda</title>
  <g id="legend">
    <g>
      <path d="M1275,822.34a5,5,0,0,1,1.66-3.69h0a7,7,0,0,0,1.71-3.09,4.28,4.28,0,0,0-1.64-3h0a4.9,4.9,0,0,1,0-7.31h0a4.73,4.73,0,0,0,1.77-3,7.43,7.43,0,0,0-1.79-3.49h0a5,5,0,1,1,6.64,0h0c-.14.12-.23.24-.35.36a8.28,8.28,0,0,0-1.45,3,4.6,4.6,0,0,0,1.8,3.18h0a4.9,4.9,0,0,1,0,7.36h0a4.1,4.1,0,0,0-1.69,3.1,7.91,7.91,0,0,0,1.29,2.57c.12.12.22.24.35.36h0a5,5,0,1,1-8.31,3.65Z" transform="translate(-1096.66 -740.81)" style="fill: #f5f5f5"/>
      <g>
        <path d="M1170.68,892.75a2.59,2.59,0,1,1-2.59,2.59,2.59,2.59,0,0,1,2.59-2.59m0-.25a2.84,2.84,0,1,0,2.83,2.84,2.84,2.84,0,0,0-2.83-2.84Z" transform="translate(-1096.66 -740.81)" style="fill: #373736"/>
        <circle cx="74.02" cy="154.52" r="0.71"/>
      </g>
      <path d="M1140.11,795.09c13.87.8,13.87,27.73,27.73,27.73" transform="translate(-1096.66 -740.81)" style="fill: none;stroke: #cecece;stroke-miterlimit: 10;stroke-width: 0.5px"/>
      <path d="M1140.11,809c13.86.59,13.86,20.54,27.73,20.54" transform="translate(-1096.66 -740.81)" style="fill: none;stroke: #cecece;stroke-miterlimit: 10;stroke-width: 0.5px"/>
      <path d="M1239.81,822.82c18.71,0,19.24-27.73,37.42-27.73" transform="translate(-1096.66 -740.81)" style="fill: none;stroke: #cecece;stroke-miterlimit: 10;stroke-width: 0.5px"/>
      <path d="M1239.81,828.53c18.71,0,19.24-19.57,37.42-19.57" transform="translate(-1096.66 -740.81)" style="fill: none;stroke: #cecece;stroke-miterlimit: 10;stroke-width: 0.5px"/>
      <path d="M1239.81,850.55c18.71,0,19.24-27.73,37.42-27.73" transform="translate(-1096.66 -740.81)" style="fill: none;stroke-miterlimit: 10;stroke-width: 0.5px;stroke: url(#linear-gradient)"/>
      <text transform="translate(204.24 47.45) rotate(90)" style="font-size: 7px;font-family: HKGrotesk-Regular, HK Grotesk"><tspan style="letter-spacing: -0.01904296875em">L</tspan><tspan x="3.41" y="0">unghe</tspan><tspan x="21.94" y="0" style="letter-spacing: 0.0009765625em">zz</tspan><tspan x="28.31" y="0">a </tspan><tspan x="33.67" y="0" style="letter-spacing: -0.00390625em">c</tspan><tspan x="36.97" y="0">al</tspan><tspan x="42.24" y="0" style="letter-spacing: -0.0048828125em">c</tspan><tspan x="45.54" y="0">o</tspan><tspan x="49.36" y="0" style="letter-spacing: -0.0009765625em">la</tspan><tspan x="54.62" y="0" style="letter-spacing: 0.0009765625em">t</tspan><tspan x="56.93" y="0">a </tspan><tspan x="62.28" y="0" style="letter-spacing: 0.0009765625em">r</tspan><tspan x="65.01" y="0">ispet</tspan><tspan x="79.35" y="0" style="letter-spacing: -0.00390625em">t</tspan><tspan x="81.62" y="0">o</tspan><tspan x="0" y="7">al </tspan><tspan x="7.12" y="7" style="letter-spacing: -0.0087890625em">n</tspan><tspan x="10.89" y="7">ume</tspan><tspan x="24.06" y="7" style="letter-spacing: -0.0400390625em">r</tspan><tspan x="26.5" y="7">o delle pagine</tspan></text>
      <text transform="translate(3.8 167.16)" style="font-size: 7px;font-family: HKGrotesk-Regular, HK Grotesk">in <tspan x="7.34" y="0" style="letter-spacing: 0.0009765625em">r</tspan><tspan x="10.07" y="0">ivis</tspan><tspan x="19.61" y="0" style="letter-spacing: 0.0009765625em">t</tspan><tspan x="21.92" y="0">a o q</tspan><tspan x="36.81" y="0" style="letter-spacing: -0.00390625em">uo</tspan><tspan x="44.4" y="0" style="letter-spacing: 0.0009765625em">t</tspan><tspan x="46.7" y="0">idiano</tspan></text>
      <text transform="translate(6.24 134.14)" style="font-size: 7px;font-family: HKGrotesk-SemiBold, HK Grotesk;font-weight: 700"><tspan style="letter-spacing: -0.01318359375em">P</tspan><tspan x="3.88" y="0" style="letter-spacing: 0.001953125em">r</tspan><tspan x="6.65" y="0">ima </tspan><tspan x="19.66" y="0" style="letter-spacing: -0.0029296875em">p</tspan><tspan x="23.6" y="0">ubbli</tspan><tspan x="39.14" y="0" style="letter-spacing: -0.0029296875em">c</tspan><tspan x="42.52" y="0">azione</tspan></text>
      <text transform="translate(26.34 156.13)" style="font-size: 7px;font-family: HKGrotesk-Regular, HK Grotesk">in mi<tspan x="14.82" y="0" style="letter-spacing: -0.00390625em">s</tspan><tspan x="17.76" y="0" style="letter-spacing: -0.0048828125em">c</tspan><tspan x="21.05" y="0">el</tspan><tspan x="26.37" y="0" style="letter-spacing: -0.0009765625em">l</tspan><tspan x="28.13" y="0">anea</tspan></text>
      <text transform="translate(39.63 145.37)" style="font-size: 7px;font-family: HKGrotesk-Regular, HK Grotesk">in <tspan x="7.34" y="0" style="letter-spacing: -0.01513671875em">v</tspan><tspan x="10.48" y="0">o</tspan><tspan x="14.3" y="0" style="letter-spacing: -0.00390625em">l</tspan><tspan x="16.05" y="0">ume</tspan></text>
      <g>
        <line x1="192.24" y1="51.3" x2="192.24" y2="84.5" style="fill: none;stroke: #000;stroke-miterlimit: 10;stroke-width: 0.25px"/>
        <polygon points="191.32 52 192.24 51.61 193.17 52 192.24 49.81 191.32 52"/>
        <polygon points="191.32 83.8 192.24 84.19 193.17 83.8 192.24 86 191.32 83.8"/>
      </g>
      <g>
        <line x1="74.02" y1="100.19" x2="74.02" y2="115.44" style="fill: none;stroke: #000;stroke-miterlimit: 10;stroke-width: 0.25px"/>
        <polygon points="73.09 114.74 74.02 115.13 74.94 114.74 74.02 116.93 73.09 114.74"/>
      </g>
      <g>
        <line x1="110.26" y1="52.62" x2="110.26" y2="66.37" style="fill: none;stroke: #000;stroke-miterlimit: 10;stroke-width: 0.5px"/>
        <polygon points="108.41 64.97 110.27 65.75 112.12 64.97 110.27 69.36 108.41 64.97"/>
      </g>
      <g>
        <line x1="148.03" y1="100.19" x2="148.03" y2="135.19" style="fill: none;stroke: #000;stroke-miterlimit: 10;stroke-width: 0.25px"/>
        <polygon points="147.1 134.49 148.03 134.88 148.96 134.49 148.03 136.69 147.1 134.49"/>
      </g>
      <line x1="43.46" y1="51.36" x2="43.46" y2="57.2" style="fill: none;stroke: #cecece;stroke-miterlimit: 10;stroke-width: 0.5px"/>
      <line x1="43.46" y1="65.22" x2="43.46" y2="71.06" style="fill: none;stroke: #cecece;stroke-miterlimit: 10;stroke-width: 0.5px"/>
      <text transform="translate(21.41 56.28)" style="font-size: 7px;font-family: CrimsonText-Roman, Crimson Text">Rivista</text>
      <text transform="translate(10.35 69.9)" style="font-size: 7px;font-family: CrimsonText-SemiboldItalic, Crimson Text;font-weight: 700;font-style: italic">Quotidiano</text>
      <path d="M1170.68,820.24a2.59,2.59,0,1,1-2.59,2.58,2.59,2.59,0,0,1,2.59-2.58m0-.25a2.84,2.84,0,1,0,2.83,2.83,2.84,2.84,0,0,0-2.83-2.83Z" transform="translate(-1096.66 -740.81)" style="fill: #373736"/>
      <rect x="1204.58" y="790.93" width="6.68" height="63.78" transform="translate(934.09 -1125.92) rotate(90)" style="fill: #d9d9d9"/>
      <text transform="translate(82.9 84.23)" style="font-size: 7px;font-family: HKGrotesk-Regular, HK Grotesk"><tspan style="letter-spacing: -0.017996651785714284em">T</tspan><tspan x="4.09" y="0">i</tspan><tspan x="5.76" y="0" style="letter-spacing: -0.00390625em">t</tspan><tspan x="8.03" y="0" style="letter-spacing: 0.00013950892857142856em">olo del </tspan><tspan x="30.33" y="0" style="letter-spacing: 0.0009765625em">r</tspan><tspan x="33.05" y="0" style="letter-spacing: -0.00013950892857142856em">a</tspan><tspan x="36.55" y="0" style="letter-spacing: -0.0048828125em">cc</tspan><tspan x="43.14" y="0" style="letter-spacing: 0.00013950892857142856em">on</tspan><tspan x="50.79" y="0" style="letter-spacing: -0.004045758928571429em">t</tspan><tspan x="53.07" y="0" style="letter-spacing: 0.00013950892857142856em">o</tspan></text>
      <path d="M1170.68,826.92a2.59,2.59,0,1,1-2.59,2.58,2.59,2.59,0,0,1,2.59-2.58m0-.25a2.84,2.84,0,1,0,2.83,2.83,2.84,2.84,0,0,0-2.83-2.83Z" transform="translate(-1096.66 -740.81)" style="fill: #373736"/>
      <path d="M1170.68,903.79a2.59,2.59,0,1,1-2.59,2.58,2.59,2.59,0,0,1,2.59-2.58m0-.25a2.84,2.84,0,1,0,2.83,2.83,2.84,2.84,0,0,0-2.83-2.83Z" transform="translate(-1096.66 -740.81)" style="fill: #373736"/>
      <circle cx="183.41" cy="54.28" r="2.83" style="fill: #ccc"/>
      <circle cx="183.41" cy="68.14" r="2.83" style="fill: #ccc"/>
      <circle cx="183.41" cy="81.52" r="2.83" style="fill: #ccc"/>
      <rect x="1204.58" y="797.61" width="6.68" height="63.78" transform="translate(940.77 -1119.23) rotate(90)" style="fill: #f2f2f2"/>
      <text transform="translate(82.9 90.91)" style="font-size: 7px;font-family: HKGrotesk-Regular, HK Grotesk"><tspan style="letter-spacing: -0.017996651785714284em">T</tspan><tspan x="4.09" y="0">i</tspan><tspan x="5.76" y="0" style="letter-spacing: -0.00390625em">t</tspan><tspan x="8.03" y="0" style="letter-spacing: 0.00013950892857142856em">olo del </tspan><tspan x="30.33" y="0" style="letter-spacing: 0.0009765625em">r</tspan><tspan x="33.05" y="0" style="letter-spacing: -0.00013950892857142856em">a</tspan><tspan x="36.55" y="0" style="letter-spacing: -0.0048828125em">cc</tspan><tspan x="43.14" y="0" style="letter-spacing: 0.00013950892857142856em">on</tspan><tspan x="50.79" y="0" style="letter-spacing: -0.004045758928571429em">t</tspan><tspan x="53.07" y="0" style="letter-spacing: 0.00013950892857142856em">o</tspan></text>
      <text transform="translate(170.57 51.45) rotate(90)" style="font-size: 8px;font-family: CrimsonText-BoldItalic, Crimson Text;font-style: italic"><tspan style="font-weight: 700">Titolo della raccolta</tspan><tspan x="58.01" y="0" xml:space="preserve" style="font-family: CrimsonText-Italic, Crimson Text"> Anno </tspan><tspan x="77.21" y="0" style="font-family: CrimsonText-Italic, Crimson Text;letter-spacing: -0.029296875em">d</tspan><tspan x="80.59" y="0" style="font-family: CrimsonText-Italic, Crimson Text">i pubb</tspan><tspan x="97.8" y="0" style="font-family: CrimsonText-Italic, Crimson Text;letter-spacing: -0.025390625em">l</tspan><tspan x="99.53" y="0" style="font-family: CrimsonText-Italic, Crimson Text">icazi</tspan><tspan x="112.95" y="0" style="font-family: CrimsonText-Italic, Crimson Text;letter-spacing: -0.01953125em">o</tspan><tspan x="116.02" y="0" style="font-family: CrimsonText-Italic, Crimson Text">ne</tspan></text>
      <text transform="translate(22.81 186.93)" style="font-size: 7px;font-family: HKGrotesk-Regular, HK Grotesk"><tspan style="letter-spacing: 0.0009765625em">r</tspan><tspan x="2.72" y="0">i</tspan><tspan x="4.39" y="0" style="letter-spacing: -0.00390625em">p</tspan><tspan x="8.22" y="0">ubbli</tspan><tspan x="23.19" y="0" style="letter-spacing: -0.00390625em">c</tspan><tspan x="26.49" y="0">azione</tspan><tspan x="-15.67" y="7">in </tspan><tspan x="-8.33" y="7" style="letter-spacing: -0.01513671875em">v</tspan><tspan x="-5.19" y="7">o</tspan><tspan x="-1.36" y="7" style="letter-spacing: -0.00390625em">l</tspan><tspan x="0.38" y="7">ume </tspan><tspan x="15.4" y="7" style="letter-spacing: -0.0087890625em">a</tspan><tspan x="18.84" y="7">u</tspan><tspan x="22.66" y="7" style="letter-spacing: -0.00390625em">t</tspan><tspan x="24.93" y="7">onomo</tspan></text>
      <text transform="translate(139.62 144.82)" style="font-size: 7px;font-family: HKGrotesk-Regular, HK Grotesk"><tspan style="letter-spacing: -0.00390625em">A</tspan><tspan x="4.44" y="0">nno</tspan><tspan x="-33.11" y="7">di </tspan><tspan x="-25.74" y="7" style="letter-spacing: -0.00390625em">p</tspan><tspan x="-21.91" y="7">ubbli</tspan><tspan x="-6.94" y="7" style="letter-spacing: -0.00390625em">c</tspan><tspan x="-3.64" y="7">azione</tspan><tspan x="-21.68" y="14">del </tspan><tspan x="-10.65" y="14" style="letter-spacing: 0.0009765625em">r</tspan><tspan x="-7.93" y="14">a</tspan><tspan x="-4.43" y="14" style="letter-spacing: -0.0048828125em">cc</tspan><tspan x="2.16" y="14">on</tspan><tspan x="9.81" y="14" style="letter-spacing: -0.00390625em">t</tspan><tspan x="12.09" y="14">o</tspan></text>
      <path d="M1169.52,927.57l1.06,2,1.05-2,.81.58-1.49,1.7,2.15.35-.31,1-2-.86.26,2.11h-1l.27-2.11-2,.86-.3-1,2.14-.35-1.48-1.7Z" transform="translate(-1096.66 -740.81)"/>
      <text transform="translate(26.63 6.76)" style="font-size: 8px;font-family: HKGrotesk-Italic, HK Grotesk;font-style: italic"><tspan style="letter-spacing: -0.02001953125em">P</tspan><tspan x="4.32" y="0">ubbli</tspan><tspan x="21.41" y="0" style="letter-spacing: -0.00390625em">c</tspan><tspan x="25.17" y="0">azioni</tspan><tspan x="-26.63" y="7">in </tspan><tspan x="-18.19" y="7" style="letter-spacing: 0.0009765625em">r</tspan><tspan x="-15.08" y="7">ivis</tspan><tspan x="-4.15" y="7" style="letter-spacing: -0.00390625em">t</tspan><tspan x="-1.56" y="7">e o q</tspan><tspan x="15.58" y="7" style="letter-spacing: -0.00390625em">uo</tspan><tspan x="24.24" y="7" style="letter-spacing: 0.0009765625em">t</tspan><tspan x="26.87" y="7">idiani</tspan></text>
      <text transform="translate(79.07 35.06)" style="font-size: 8px;font-family: HKGrotesk-Italic, HK Grotesk;font-style: italic"><tspan style="letter-spacing: -0.005859375em">R</tspan><tspan x="4.71" y="0">a</tspan><tspan x="9.13" y="0" style="letter-spacing: -0.0048828125em">cc</tspan><tspan x="16.64" y="0">on</tspan><tspan x="25.38" y="0" style="letter-spacing: 0.0009765625em">t</tspan><tspan x="28.01" y="0">i in o</tspan><tspan x="44.88" y="0" style="letter-spacing: -0.0400390625em">r</tspan><tspan x="47.66" y="0">dine</tspan><tspan x="-4.63" y="7">c</tspan><tspan x="-0.83" y="7" style="letter-spacing: -0.0400390625em">r</tspan><tspan x="1.95" y="7">onologi</tspan><tspan x="27.78" y="7" style="letter-spacing: -0.0048828125em">c</tspan><tspan x="31.53" y="7">o di u</tspan><tspan x="50.9" y="7" style="letter-spacing: -0.00390625em">s</tspan><tspan x="54.28" y="7">ci</tspan><tspan x="59.98" y="7" style="letter-spacing: 0.0009765625em">t</tspan><tspan x="62.61" y="7">a</tspan></text>
      <text transform="translate(144.39 6.76)" style="font-size: 8px;font-family: HKGrotesk-Italic, HK Grotesk;font-style: italic"><tspan style="letter-spacing: -0.02001953125em">P</tspan><tspan x="4.32" y="0">ubbli</tspan><tspan x="21.41" y="0" style="letter-spacing: -0.00390625em">c</tspan><tspan x="25.17" y="0">azioni</tspan><tspan x="0" y="7">in </tspan><tspan x="8.43" y="7" style="letter-spacing: 0.0009765625em">r</tspan><tspan x="11.54" y="7">a</tspan><tspan x="15.95" y="7" style="letter-spacing: -0.0048828125em">cc</tspan><tspan x="23.47" y="7">ol</tspan><tspan x="29.86" y="7" style="letter-spacing: -0.00390625em">t</tspan><tspan x="32.45" y="7">e</tspan></text>
      <rect x="1246.86" y="812.77" width="9.48" height="19.13" transform="translate(977.28 -1170.08) rotate(90)" style="fill: #fff"/>
      <text transform="matrix(-1, 0, 0, 1, 165.31, 83.96)" style="font-size: 7px;font-family: HKGrotesk-SemiBold, HK Grotesk;font-weight: 700">X<tspan x="4.5" y="0" style="letter-spacing: 0.009765625em">XY</tspan><tspan x="13.64" y="0">Y</tspan></text>
      <g>
        <path d="M1159.06,762.31a19,19,0,0,0-18.71,16" transform="translate(-1096.66 -740.81)" style="fill: none;stroke: #000;stroke-miterlimit: 10;stroke-width: 0.5px"/>
        <polygon points="42.03 35.9 43.8 36.86 45.71 36.25 43.46 40.45 42.03 35.9"/>
      </g>
      <g>
        <path d="M1251.05,762.31a19,19,0,0,1,18.71,16" transform="translate(-1096.66 -740.81)" style="fill: none;stroke: #000;stroke-miterlimit: 10;stroke-width: 0.5px"/>
        <polygon points="171.08 36.25 173 36.86 174.77 35.9 173.34 40.45 171.08 36.25"/>
      </g>
      <circle cx="74.02" cy="143.49" r="2.13" style="fill: #5f5f5e"/>
    </g>
  </g>
</svg>
