<?xml version="1.0" encoding="UTF-8"?>
<svg width="86px" height="77px" viewBox="0 0 86 77" version="1.1" xmlns="http://www.w3.org/2000/svg" xmlns:xlink="http://www.w3.org/1999/xlink">
    <!-- Generator: Sketch 55.2 (78181) - https://sketchapp.com -->
    <title>dimensione</title>
    <desc>Created with Sketch.</desc>
    <defs>
        <polygon id="path-1" points="0 75.3193 84.686 75.3193 84.686 0.0003 0 0.0003"></polygon>
    </defs>
    <g id="dimensione" stroke="none" stroke-width="1" fill="none" fill-rule="evenodd">
        <g id="Group-56" transform="translate(1.000000, 1.000000)">
            <path d="M31.5469,16.3779 C48.5019,16.3779 62.2469,24.3029 62.2469,34.0779 C62.2469,43.8539 48.5019,51.7779 31.5469,51.7779 C14.5919,51.7779 0.8469,43.8539 0.8469,34.0779 C0.8469,24.3029 14.5919,16.3779 31.5469,16.3779" id="Fill-1" fill="#FFFFFF"></path>
            <path d="M31.5469,16.3779 C48.5019,16.3779 62.2469,24.3029 62.2469,34.0779 C62.2469,43.8539 48.5019,51.7779 31.5469,51.7779 C14.5919,51.7779 0.8469,43.8539 0.8469,34.0779 C0.8469,24.3029 14.5919,16.3779 31.5469,16.3779 Z" id="Stroke-3" stroke="#444444" stroke-width="0.75"></path>
            <path d="M31.5469,14.5781 C46.2929,14.5781 58.2469,21.4731 58.2469,29.9781 C58.2469,38.4831 46.2929,45.3781 31.5469,45.3781 C16.8009,45.3781 4.8469,38.4831 4.8469,29.9781 C4.8469,21.4731 16.8009,14.5781 31.5469,14.5781" id="Fill-5" fill="#FFFFFF"></path>
            <path d="M31.5469,14.5781 C46.2929,14.5781 58.2469,21.4731 58.2469,29.9781 C58.2469,38.4831 46.2929,45.3781 31.5469,45.3781 C16.8009,45.3781 4.8469,38.4831 4.8469,29.9781 C4.8469,21.4731 16.8009,14.5781 31.5469,14.5781 Z" id="Stroke-7" stroke="#444444" stroke-width="0.5"></path>
            <path d="M31.5469,12.3779 C44.5809,12.3779 55.1479,18.4669 55.1479,25.9789 C55.1479,33.4889 44.5809,39.5779 31.5469,39.5779 C18.5139,39.5779 7.9469,33.4889 7.9469,25.9789 C7.9469,18.4669 18.5139,12.3779 31.5469,12.3779" id="Fill-9" fill="#FFFFFF"></path>
            <path d="M31.5469,12.3779 C44.5809,12.3779 55.1479,18.4669 55.1479,25.9789 C55.1479,33.4889 44.5809,39.5779 31.5469,39.5779 C18.5139,39.5779 7.9469,33.4889 7.9469,25.9789 C7.9469,18.4669 18.5139,12.3779 31.5469,12.3779 Z" id="Stroke-11" stroke="#444444" stroke-width="0.5"></path>
            <path d="M31.5469,9.4785 C43.3659,9.4785 52.9469,15.0305 52.9469,21.8775 C52.9469,28.7265 43.3659,34.2785 31.5469,34.2785 C19.7289,34.2785 10.1479,28.7265 10.1479,21.8775 C10.1479,15.0305 19.7289,9.4785 31.5469,9.4785" id="Fill-13" fill="#FFFFFF"></path>
            <path d="M31.5469,9.4785 C43.3659,9.4785 52.9469,15.0305 52.9469,21.8775 C52.9469,28.7265 43.3659,34.2785 31.5469,34.2785 C19.7289,34.2785 10.1479,28.7265 10.1479,21.8775 C10.1479,15.0305 19.7289,9.4785 31.5469,9.4785 Z" id="Stroke-15" stroke="#444444" stroke-width="0.5"></path>
            <path d="M31.5469,6.5781 C42.2619,6.5781 50.9469,11.5931 50.9469,17.7781 C50.9469,23.9641 42.2619,28.9781 31.5469,28.9781 C20.8329,28.9781 12.1479,23.9641 12.1479,17.7781 C12.1479,11.5931 20.8329,6.5781 31.5469,6.5781" id="Fill-17" fill="#FFFFFF"></path>
            <path d="M31.5469,6.5781 C42.2619,6.5781 50.9469,11.5931 50.9469,17.7781 C50.9469,23.9641 42.2619,28.9781 31.5469,28.9781 C20.8329,28.9781 12.1479,23.9641 12.1479,17.7781 C12.1479,11.5931 20.8329,6.5781 31.5469,6.5781 Z" id="Stroke-19" stroke="#444444" stroke-width="0.5"></path>
            <path d="M31.5469,3.9785 C40.8249,3.9785 48.3469,8.3215 48.3469,13.6775 C48.3469,19.0355 40.8249,23.3775 31.5469,23.3775 C22.2689,23.3775 14.7469,19.0355 14.7469,13.6775 C14.7469,8.3215 22.2689,3.9785 31.5469,3.9785" id="Fill-21" fill="#FFFFFF"></path>
            <path d="M31.5469,3.9785 C40.8249,3.9785 48.3469,8.3215 48.3469,13.6775 C48.3469,19.0355 40.8249,23.3775 31.5469,23.3775 C22.2689,23.3775 14.7469,19.0355 14.7469,13.6775 C14.7469,8.3215 22.2689,3.9785 31.5469,3.9785 Z" id="Stroke-23" stroke="#444444" stroke-width="0.5"></path>
            <path d="M31.5469,2.0781 C38.7269,2.0781 44.5469,5.4361 44.5469,9.5781 C44.5469,13.7211 38.7269,17.0781 31.5469,17.0781 C24.3669,17.0781 18.5469,13.7211 18.5469,9.5781 C18.5469,5.4361 24.3669,2.0781 31.5469,2.0781" id="Fill-25" fill="#FFFFFF"></path>
            <path d="M31.5469,2.0781 C38.7269,2.0781 44.5469,5.4361 44.5469,9.5781 C44.5469,13.7211 38.7269,17.0781 31.5469,17.0781 C24.3669,17.0781 18.5469,13.7211 18.5469,9.5781 C18.5469,5.4361 24.3669,2.0781 31.5469,2.0781 Z" id="Stroke-27" stroke="#444444" stroke-width="0.5"></path>
            <path d="M31.5469,1.1777 C35.6899,1.1777 39.0469,3.1037 39.0469,5.4787 C39.0469,7.8527 35.6899,9.7787 31.5469,9.7787 C27.4049,9.7787 24.0469,7.8527 24.0469,5.4787 C24.0469,3.1037 27.4049,1.1777 31.5469,1.1777" id="Fill-29" fill="#FFFFFF"></path>
            <path d="M31.5469,1.1777 C35.6899,1.1777 39.0469,3.1037 39.0469,5.4787 C39.0469,7.8527 35.6899,9.7787 31.5469,9.7787 C27.4049,9.7787 24.0469,7.8527 24.0469,5.4787 C24.0469,3.1037 27.4049,1.1777 31.5469,1.1777 Z" id="Stroke-31" stroke="#444444" stroke-width="0.5"></path>
            <path d="M62.1475,59.7783 L0.9475,59.9783" id="Stroke-33" stroke="#444444" stroke-width="0.5"></path>
            <polygon id="Fill-35" fill="#444444" points="61.9424 58.1797 62.9424 58.1767 62.9534 61.4767 61.9534 61.4807"></polygon>
            <polygon id="Fill-37" fill="#444444" points="0.7422 58.3798 1.7422 58.3768 1.7522 61.6768 0.7522 61.6798"></polygon>
            <path d="M70.3467,51.6777 L70.3467,1.0777" id="Stroke-39" stroke="#444444" stroke-width="0.5"></path>
            <mask id="mask-2" fill="white">
                <use xlink:href="#path-1"></use>
            </mask>
            <g id="Clip-42"></g>
            <polygon id="Fill-41" fill="#444444" mask="url(#mask-2)" points="68.647 52.3783 71.846 52.3783 71.846 51.3783 68.647 51.3783"></polygon>
            <polygon id="Fill-43" fill="#444444" mask="url(#mask-2)" points="68.647 1.7783 71.846 1.7783 71.846 0.7783 68.647 0.7783"></polygon>
            <text id="lunghezza-opera" mask="url(#mask-2)" font-family="HKGrotesk-Regular, HK Grotesk" font-size="9.5" font-weight="normal" letter-spacing="-0.038" fill="#000000">
                <tspan x="0" y="70.5424445">l</tspan>
                <tspan x="2.32772266" y="70.5424445">unghe</tspan>
                <tspan x="27.4786016" y="70.5424445" letter-spacing="0.0076">z</tspan>
                <tspan x="31.8094437" y="70.5424445" letter-spacing="0.0095">z</tspan>
                <tspan x="36.1421859" y="70.5424445">a ope</tspan>
                <tspan x="58.6490219" y="70.5424445" letter-spacing="0.01045">r</tspan>
                <tspan x="62.3564934" y="70.5424445">a</tspan>
            </text>
            <text id="lunghezza-opera" mask="url(#mask-2)" transform="translate(78.665331, 34.310981) rotate(-270.000000) translate(-78.665331, -34.310981) " font-family="HKGrotesk-Regular, HK Grotesk" font-size="9.5" font-weight="normal" fill="#000000">
                <tspan x="44.6653314" y="37.3109811">l</tspan>
                <tspan x="47.0681634" y="37.3109811">unghe</tspan>
                <tspan x="72.2190423" y="37.3109811">zz</tspan>
                <tspan x="80.846972" y="37.3109811">a ope</tspan>
                <tspan x="103.353808" y="37.3109811">r</tspan>
                <tspan x="107.041552" y="37.3109811">a</tspan>
            </text>
            <path d="M62.2471,58.7783 L62.2471,57.7783" id="Stroke-44" stroke="#444444" stroke-width="0.25" mask="url(#mask-2)"></path>
            <path d="M62.2471,55.8779 L62.2471,33.9789" id="Stroke-45" stroke="#444444" stroke-width="0.25" stroke-dasharray="1.9,1.9" mask="url(#mask-2)"></path>
            <path d="M62.2471,33.0781 L62.2471,32.0781" id="Stroke-46" stroke="#444444" stroke-width="0.25" mask="url(#mask-2)"></path>
            <path d="M0.9473,58.7783 L0.9473,57.7783" id="Stroke-47" stroke="#444444" stroke-width="0.25" mask="url(#mask-2)"></path>
            <path d="M0.9473,55.8779 L0.9473,34.0779" id="Stroke-48" stroke="#444444" stroke-width="0.25" stroke-dasharray="1.9,1.9" mask="url(#mask-2)"></path>
            <path d="M0.9473,33.0781 L0.9473,32.0781" id="Stroke-49" stroke="#444444" stroke-width="0.25" mask="url(#mask-2)"></path>
            <path d="M31.6475,0.9785 L32.6475,0.9785" id="Stroke-50" stroke="#444444" stroke-width="0.25" mask="url(#mask-2)"></path>
            <path d="M34.7471,0.9785 L67.4471,0.9785" id="Stroke-51" stroke="#444444" stroke-width="0.25" stroke-dasharray="2.114,2.114" mask="url(#mask-2)"></path>
            <path d="M68.5469,0.9785 L69.5469,0.9785" id="Stroke-52" stroke="#444444" stroke-width="0.25" mask="url(#mask-2)"></path>
            <path d="M31.6475,51.6777 L32.6475,51.6777" id="Stroke-53" stroke="#444444" stroke-width="0.25" mask="url(#mask-2)"></path>
            <path d="M34.7471,51.6777 L67.4471,51.6777" id="Stroke-54" stroke="#444444" stroke-width="0.25" stroke-dasharray="2.114,2.114" mask="url(#mask-2)"></path>
            <path d="M68.5469,51.6777 L69.5469,51.6777" id="Stroke-55" stroke="#444444" stroke-width="0.25" mask="url(#mask-2)"></path>
        </g>
    </g>
</svg>