<?xml version="1.0" encoding="UTF-8"?>
<svg width="431px" height="87px" viewBox="0 0 431 87" version="1.1" xmlns="http://www.w3.org/2000/svg" xmlns:xlink="http://www.w3.org/1999/xlink">
    <!-- Generator: Sketch 55.2 (78181) - https://sketchapp.com -->
    <title>modalita-volumi</title>
    <desc>Created with Sketch.</desc>
    <defs>
        <polygon id="path-1" points="0.1372 0.223144531 88.42 0.223144531 88.42 12.2231445 0.1372 12.2231445"></polygon>
        <polygon id="path-3" points="0 0.223144531 64.9995 0.223144531 64.9995 12.2231445 0 12.2231445"></polygon>
        <polygon id="path-5" points="0.3994 0.991 137.751 0.991 137.751 73.2231445 0.3994 73.2231445"></polygon>
    </defs>
    <g id="modalita-volumi" stroke="none" stroke-width="1" fill="none" fill-rule="evenodd">
        <g id="Group-112" transform="translate(7.000000, 1.000000)">
            <text id="-" font-family="HKGrotesk-Regular, HK Grotesk" font-size="9.5" font-weight="normal"></text>
            <text id="-" font-family="HKGrotesk-Regular, HK Grotesk" font-size="9" font-weight="normal"></text>
            <g id="Group-54" transform="translate(230.000000, 3.008800)">
                <text id="Testo-pubblicato-solo" font-family="HKGrotesk-Regular, HK Grotesk" font-size="9.5" font-weight="normal" letter-spacing="-0.90915" fill="#000000">
                    <tspan x="97.7119" y="67.2231445">T</tspan>
                    <tspan x="101.62233" y="67.2231445">es</tspan>
                    <tspan x="110.463639" y="67.2231445" letter-spacing="-0.04275">t</tspan>
                    <tspan x="113.505605" y="67.2231445">o </tspan>
                    <tspan x="121.205801" y="67.2231445" letter-spacing="-0.0342">p</tspan>
                    <tspan x="126.371552" y="67.2231445">ubbli</tspan>
                    <tspan x="146.684296" y="67.2231445" letter-spacing="-0.04275">c</tspan>
                    <tspan x="151.122503" y="67.2231445" letter-spacing="-0.0057">a</tspan>
                    <tspan x="155.862164" y="67.2231445" letter-spacing="-0.0399">t</tspan>
                    <tspan x="158.906981" y="67.2231445">o </tspan>
                    <tspan x="166.607177" y="67.2231445" letter-spacing="-0.038">s</tspan>
                    <tspan x="170.558434" y="67.2231445">olo</tspan>
                </text>
                <g id="Group-3" transform="translate(97.000000, 69.000000)">
                    <mask id="mask-2" fill="white">
                        <use xlink:href="#path-1"></use>
                    </mask>
                    <g id="Clip-2"></g>
                    <text id="in-rivista-o-quotidiano" mask="url(#mask-2)" font-family="HKGrotesk-Regular, HK Grotesk" font-size="9.5" font-weight="normal" fill="#000000">
                        <tspan x="0.1372" y="9.22314453">i</tspan>
                        <tspan x="2.40087188" y="9.22314453" letter-spacing="0.0057">n</tspan>
                        <tspan x="7.5972457" y="9.22314453"> </tspan>
                        <tspan x="10.1067672" y="9.22314453" letter-spacing="0.0114">r</tspan>
                        <tspan x="13.8151887" y="9.22314453">i</tspan>
                        <tspan x="16.0788605" y="9.22314453" letter-spacing="0.00665">v</tspan>
                        <tspan x="20.4876102" y="9.22314453">is</tspan>
                        <tspan x="26.7776492" y="9.22314453" letter-spacing="0.00665">t</tspan>
                        <tspan x="29.9154027" y="9.22314453">a o q</tspan>
                        <tspan x="50.1214574" y="9.22314453" letter-spacing="-0.03325">uo</tspan>
                        <tspan x="60.352809" y="9.22314453" letter-spacing="0.0057">t</tspan>
                        <tspan x="63.4896125" y="9.22314453">i</tspan>
                        <tspan x="65.7532844" y="9.22314453" letter-spacing="0.0057">d</tspan>
                        <tspan x="70.9960449" y="9.22314453">i</tspan>
                        <tspan x="73.2597168" y="9.22314453" letter-spacing="0.00665">a</tspan>
                        <tspan x="78.0210055" y="9.22314453">no</tspan>
                    </text>
                </g>
                <path d="M143.4961,15.999 C160.3961,15.999 174.0971,23.924 174.0971,33.699 C174.0971,43.475 160.3961,51.399 143.4961,51.399 C126.5971,51.399 112.8961,43.475 112.8961,33.699 C112.8961,23.924 126.5971,15.999 143.4961,15.999 Z" id="Stroke-4" stroke="#444444" stroke-width="0.25"></path>
                <path d="M143.4961,14.1992 C158.1871,14.1992 170.0971,21.0942 170.0971,29.5982 C170.0971,38.1042 158.1871,44.9992 143.4961,44.9992 C128.8061,44.9992 116.8961,38.1042 116.8961,29.5982 C116.8961,21.0942 128.8061,14.1992 143.4961,14.1992 Z" id="Stroke-6" stroke="#444444" stroke-width="0.25"></path>
                <path d="M143.4961,11.8994 C156.5301,11.8994 167.0971,17.9884 167.0971,25.4994 C167.0971,33.0094 156.5301,39.0984 143.4961,39.0984 C130.4631,39.0984 119.8961,33.0094 119.8961,25.4994 C119.8961,17.9884 130.4631,11.8994 143.4961,11.8994 Z" id="Stroke-8" stroke="#444444" stroke-width="0.25"></path>
                <path d="M143.4961,9.0986 C155.3151,9.0986 164.8961,14.6506 164.8961,21.4986 C164.8961,28.3476 155.3151,33.8996 143.4961,33.8996 C131.6781,33.8996 122.0971,28.3476 122.0971,21.4986 C122.0971,14.6506 131.6781,9.0986 143.4961,9.0986 Z" id="Stroke-10" stroke="#444444" stroke-width="0.25"></path>
                <path d="M143.4961,6.1992 C154.2111,6.1992 162.8961,11.2142 162.8961,17.3992 C162.8961,23.5852 154.2111,28.5982 143.4961,28.5982 C132.7821,28.5982 124.0971,23.5852 124.0971,17.3992 C124.0971,11.2142 132.7821,6.1992 143.4961,6.1992 Z" id="Stroke-12" stroke="#444444" stroke-width="0.25"></path>
                <path d="M143.4961,3.5986 C152.7741,3.5986 160.2971,7.9416 160.2971,13.2986 C160.2971,18.6566 152.7741,22.9986 143.4961,22.9986 C134.2181,22.9986 126.6961,18.6566 126.6961,13.2986 C126.6961,7.9416 134.2181,3.5986 143.4961,3.5986 Z" id="Stroke-14" stroke="#444444" stroke-width="0.25"></path>
                <path d="M143.4961,1.6992 C150.6761,1.6992 156.4961,5.0562 156.4961,9.1992 C156.4961,13.3412 150.6761,16.6992 143.4961,16.6992 C136.3161,16.6992 130.4961,13.3412 130.4961,9.1992 C130.4961,5.0562 136.3161,1.6992 143.4961,1.6992 Z" id="Stroke-16" stroke="#444444" stroke-width="0.25"></path>
                <path d="M143.4961,0.8994 C147.6391,0.8994 150.9961,2.8244 150.9961,5.1994 C150.9961,7.5744 147.6391,9.4994 143.4961,9.4994 C139.3541,9.4994 135.9961,7.5744 135.9961,5.1994 C135.9961,2.8244 139.3541,0.8994 143.4961,0.8994 Z" id="Stroke-18" stroke="#444444" stroke-width="0.25"></path>
                <text id="Testo-pubblicato" font-family="HKGrotesk-Regular, HK Grotesk" font-size="9.5" font-weight="normal" letter-spacing="-0.90915" fill="#000000">
                    <tspan x="9.8857" y="67.2231445">T</tspan>
                    <tspan x="13.7961301" y="67.2231445">es</tspan>
                    <tspan x="22.6374387" y="67.2231445" letter-spacing="-0.04275">t</tspan>
                    <tspan x="25.6794055" y="67.2231445">o </tspan>
                    <tspan x="33.3796008" y="67.2231445" letter-spacing="-0.0342">p</tspan>
                    <tspan x="38.545352" y="67.2231445">ubbli</tspan>
                    <tspan x="58.8580961" y="67.2231445" letter-spacing="-0.04275">c</tspan>
                    <tspan x="63.2963031" y="67.2231445" letter-spacing="-0.0057">a</tspan>
                    <tspan x="68.0359645" y="67.2231445" letter-spacing="-0.0399">t</tspan>
                    <tspan x="71.0807813" y="67.2231445">o</tspan>
                </text>
                <text id="-in-volume-autonomo" font-family="HKGrotesk-Regular, HK Grotesk" font-size="9.5" font-weight="normal" fill="#000000">
                    <tspan x="0.7046" y="78.2231445"> i</tspan>
                    <tspan x="5.47779336" y="78.2231445" letter-spacing="0.0057">n</tspan>
                    <tspan x="10.6741672" y="78.2231445"> </tspan>
                    <tspan x="13.1836887" y="78.2231445" letter-spacing="-0.1406">v</tspan>
                    <tspan x="17.3013895" y="78.2231445">o</tspan>
                    <tspan x="22.4920633" y="78.2231445" letter-spacing="-0.038">l</tspan>
                    <tspan x="24.8197859" y="78.2231445">u</tspan>
                    <tspan x="30.0011824" y="78.2231445" letter-spacing="-0.00475">m</tspan>
                    <tspan x="37.8775359" y="78.2231445">e </tspan>
                    <tspan x="45.2019988" y="78.2231445" letter-spacing="-0.07885">a</tspan>
                    <tspan x="49.7942914" y="78.2231445">u</tspan>
                    <tspan x="54.9756879" y="78.2231445" letter-spacing="-0.0399">t</tspan>
                    <tspan x="58.0205047" y="78.2231445">onomo</tspan>
                </text>
                <path d="M45.4961,15.999 C62.3961,15.999 76.0971,23.924 76.0971,33.699 C76.0971,43.475 62.3961,51.399 45.4961,51.399 C28.5971,51.399 14.8961,43.475 14.8961,33.699 C14.8961,23.924 28.5971,15.999 45.4961,15.999" id="Fill-22" fill="#D6DBDF"></path>
                <path d="M45.4961,15.999 C62.3961,15.999 76.0971,23.924 76.0971,33.699 C76.0971,43.475 62.3961,51.399 45.4961,51.399 C28.5971,51.399 14.8961,43.475 14.8961,33.699 C14.8961,23.924 28.5971,15.999 45.4961,15.999 Z" id="Stroke-24" stroke="#444444" stroke-width="0.25"></path>
                <path d="M45.4961,14.1992 C60.1871,14.1992 72.0971,21.0942 72.0971,29.5982 C72.0971,38.1042 60.1871,44.9992 45.4961,44.9992 C30.8061,44.9992 18.8961,38.1042 18.8961,29.5982 C18.8961,21.0942 30.8061,14.1992 45.4961,14.1992" id="Fill-26" fill="#D6DBDF"></path>
                <path d="M45.4961,14.1992 C60.1871,14.1992 72.0971,21.0942 72.0971,29.5982 C72.0971,38.1042 60.1871,44.9992 45.4961,44.9992 C30.8061,44.9992 18.8961,38.1042 18.8961,29.5982 C18.8961,21.0942 30.8061,14.1992 45.4961,14.1992 Z" id="Stroke-28" stroke="#444444" stroke-width="0.25"></path>
                <path d="M45.4961,11.8994 C58.5301,11.8994 69.0971,17.9884 69.0971,25.4994 C69.0971,33.0094 58.5301,39.0984 45.4961,39.0984 C32.4631,39.0984 21.8961,33.0094 21.8961,25.4994 C21.8961,17.9884 32.4631,11.8994 45.4961,11.8994" id="Fill-30" fill="#D6DBDF"></path>
                <path d="M45.4961,11.8994 C58.5301,11.8994 69.0971,17.9884 69.0971,25.4994 C69.0971,33.0094 58.5301,39.0984 45.4961,39.0984 C32.4631,39.0984 21.8961,33.0094 21.8961,25.4994 C21.8961,17.9884 32.4631,11.8994 45.4961,11.8994 Z" id="Stroke-32" stroke="#444444" stroke-width="0.25"></path>
                <path d="M45.4961,9.0986 C57.3151,9.0986 66.8961,14.6506 66.8961,21.4986 C66.8961,28.3476 57.3151,33.8996 45.4961,33.8996 C33.6781,33.8996 24.0971,28.3476 24.0971,21.4986 C24.0971,14.6506 33.6781,9.0986 45.4961,9.0986" id="Fill-34" fill="#D6DBDF"></path>
                <path d="M45.4961,9.0986 C57.3151,9.0986 66.8961,14.6506 66.8961,21.4986 C66.8961,28.3476 57.3151,33.8996 45.4961,33.8996 C33.6781,33.8996 24.0971,28.3476 24.0971,21.4986 C24.0971,14.6506 33.6781,9.0986 45.4961,9.0986 Z" id="Stroke-36" stroke="#444444" stroke-width="0.25"></path>
                <path d="M45.4961,6.1992 C56.2111,6.1992 64.8961,11.2142 64.8961,17.3992 C64.8961,23.5852 56.2111,28.5982 45.4961,28.5982 C34.7821,28.5982 26.0971,23.5852 26.0971,17.3992 C26.0971,11.2142 34.7821,6.1992 45.4961,6.1992" id="Fill-38" fill="#D6DBDF"></path>
                <path d="M45.4961,6.1992 C56.2111,6.1992 64.8961,11.2142 64.8961,17.3992 C64.8961,23.5852 56.2111,28.5982 45.4961,28.5982 C34.7821,28.5982 26.0971,23.5852 26.0971,17.3992 C26.0971,11.2142 34.7821,6.1992 45.4961,6.1992 Z" id="Stroke-40" stroke="#444444" stroke-width="0.25"></path>
                <path d="M45.4961,3.5986 C54.7741,3.5986 62.2971,7.9416 62.2971,13.2986 C62.2971,18.6566 54.7741,22.9986 45.4961,22.9986 C36.2181,22.9986 28.6961,18.6566 28.6961,13.2986 C28.6961,7.9416 36.2181,3.5986 45.4961,3.5986" id="Fill-42" fill="#D6DBDF"></path>
                <path d="M45.4961,3.5986 C54.7741,3.5986 62.2971,7.9416 62.2971,13.2986 C62.2971,18.6566 54.7741,22.9986 45.4961,22.9986 C36.2181,22.9986 28.6961,18.6566 28.6961,13.2986 C28.6961,7.9416 36.2181,3.5986 45.4961,3.5986 Z" id="Stroke-44" stroke="#444444" stroke-width="0.25"></path>
                <path d="M45.4961,1.6992 C52.6761,1.6992 58.4961,5.0562 58.4961,9.1992 C58.4961,13.3412 52.6761,16.6992 45.4961,16.6992 C38.3161,16.6992 32.4961,13.3412 32.4961,9.1992 C32.4961,5.0562 38.3161,1.6992 45.4961,1.6992" id="Fill-46" fill="#D6DBDF"></path>
                <path d="M45.4961,1.6992 C52.6761,1.6992 58.4961,5.0562 58.4961,9.1992 C58.4961,13.3412 52.6761,16.6992 45.4961,16.6992 C38.3161,16.6992 32.4961,13.3412 32.4961,9.1992 C32.4961,5.0562 38.3161,1.6992 45.4961,1.6992 Z" id="Stroke-48" stroke="#444444" stroke-width="0.25"></path>
                <path d="M45.4961,0.8994 C49.6391,0.8994 52.9961,2.8244 52.9961,5.1994 C52.9961,7.5744 49.6391,9.4994 45.4961,9.4994 C41.3541,9.4994 37.9961,7.5744 37.9961,5.1994 C37.9961,2.8244 41.3541,0.8994 45.4961,0.8994" id="Fill-50" fill="#D6DBDF"></path>
                <path d="M45.4961,0.8994 C49.6391,0.8994 52.9961,2.8244 52.9961,5.1994 C52.9961,7.5744 49.6391,9.4994 45.4961,9.4994 C41.3541,9.4994 37.9961,7.5744 37.9961,5.1994 C37.9961,2.8244 41.3541,0.8994 45.4961,0.8994 Z" id="Stroke-52" stroke="#444444" stroke-width="0.25"></path>
            </g>
            <text id="-" font-family="HKGrotesk-Regular, HK Grotesk" font-size="9" font-weight="normal"></text>
            <g id="Group-90" transform="translate(0.000000, 3.008800)">
                <g id="Group-56" transform="translate(0.000000, 58.000000)">
                    <mask id="mask-4" fill="white">
                        <use xlink:href="#path-3"></use>
                    </mask>
                    <g id="Clip-55"></g>
                    <text id="Testo-contenuto" mask="url(#mask-4)" font-family="HKGrotesk-Regular, HK Grotesk" font-size="9.5" font-weight="normal" letter-spacing="-0.90915" fill="#000000">
                        <tspan x="-0.0005" y="9.22314453">T</tspan>
                        <tspan x="3.90993008" y="9.22314453">es</tspan>
                        <tspan x="12.7512387" y="9.22314453" letter-spacing="-0.04275">t</tspan>
                        <tspan x="15.7932055" y="9.22314453">o </tspan>
                        <tspan x="23.4934008" y="9.22314453" letter-spacing="-0.0494">c</tspan>
                        <tspan x="27.9156805" y="9.22314453">on</tspan>
                        <tspan x="38.2970281" y="9.22314453" letter-spacing="-0.0399">t</tspan>
                        <tspan x="41.3418449" y="9.22314453">e</tspan>
                        <tspan x="46.1567863" y="9.22314453" letter-spacing="-0.07885">n</tspan>
                        <tspan x="51.1851141" y="9.22314453">u</tspan>
                        <tspan x="56.3665105" y="9.22314453" letter-spacing="-0.04085">t</tspan>
                        <tspan x="59.4103773" y="9.22314453">o</tspan>
                    </text>
                </g>
                <text id="in-una-raccolta" font-family="HKGrotesk-Regular, HK Grotesk" font-size="9.5" font-weight="normal" fill="#000000">
                    <tspan x="2.5552" y="78.2231445">i</tspan>
                    <tspan x="4.81887188" y="78.2231445" letter-spacing="0.0057">n</tspan>
                    <tspan x="10.0152457" y="78.2231445"> una </tspan>
                    <tspan x="30.1609977" y="78.2231445" letter-spacing="0.01045">r</tspan>
                    <tspan x="33.8684691" y="78.2231445">a</tspan>
                    <tspan x="38.6231078" y="78.2231445" letter-spacing="-0.05035">cc</tspan>
                    <tspan x="47.4657672" y="78.2231445">olta</tspan>
                </text>
                <path d="M34.2559,15.999 C51.1559,15.999 64.8569,23.924 64.8569,33.699 C64.8569,43.475 51.1559,51.399 34.2559,51.399 C17.3569,51.399 3.6559,43.475 3.6559,33.699 C3.6559,23.924 17.3569,15.999 34.2559,15.999" id="Fill-58" fill="#E9D05D"></path>
                <path d="M34.2559,15.999 C51.1559,15.999 64.8569,23.924 64.8569,33.699 C64.8569,43.475 51.1559,51.399 34.2559,51.399 C17.3569,51.399 3.6559,43.475 3.6559,33.699 C3.6559,23.924 17.3569,15.999 34.2559,15.999 Z" id="Stroke-60" stroke="#444444" stroke-width="0.25" stroke-linejoin="round"></path>
                <path d="M34.2559,14.1992 C48.9469,14.1992 60.8569,21.0942 60.8569,29.5982 C60.8569,38.1042 48.9469,44.9992 34.2559,44.9992 C19.5659,44.9992 7.6559,38.1042 7.6559,29.5982 C7.6559,21.0942 19.5659,14.1992 34.2559,14.1992" id="Fill-62" fill="#E9D05D"></path>
                <path d="M34.2559,14.1992 C48.9469,14.1992 60.8569,21.0942 60.8569,29.5982 C60.8569,38.1042 48.9469,44.9992 34.2559,44.9992 C19.5659,44.9992 7.6559,38.1042 7.6559,29.5982 C7.6559,21.0942 19.5659,14.1992 34.2559,14.1992 Z" id="Stroke-64" stroke="#444444" stroke-width="0.25" stroke-linejoin="round"></path>
                <path d="M34.2559,11.8994 C47.2899,11.8994 57.8569,17.9884 57.8569,25.4994 C57.8569,33.0094 47.2899,39.0984 34.2559,39.0984 C21.2229,39.0984 10.6559,33.0094 10.6559,25.4994 C10.6559,17.9884 21.2229,11.8994 34.2559,11.8994" id="Fill-66" fill="#E9D05D"></path>
                <path d="M34.2559,11.8994 C47.2899,11.8994 57.8569,17.9884 57.8569,25.4994 C57.8569,33.0094 47.2899,39.0984 34.2559,39.0984 C21.2229,39.0984 10.6559,33.0094 10.6559,25.4994 C10.6559,17.9884 21.2229,11.8994 34.2559,11.8994 Z" id="Stroke-68" stroke="#444444" stroke-width="0.25" stroke-linejoin="round"></path>
                <path d="M34.2559,9.0986 C46.0749,9.0986 55.6559,14.6506 55.6559,21.4986 C55.6559,28.3476 46.0749,33.8996 34.2559,33.8996 C22.4379,33.8996 12.8569,28.3476 12.8569,21.4986 C12.8569,14.6506 22.4379,9.0986 34.2559,9.0986" id="Fill-70" fill="#E9D05D"></path>
                <path d="M34.2559,9.0986 C46.0749,9.0986 55.6559,14.6506 55.6559,21.4986 C55.6559,28.3476 46.0749,33.8996 34.2559,33.8996 C22.4379,33.8996 12.8569,28.3476 12.8569,21.4986 C12.8569,14.6506 22.4379,9.0986 34.2559,9.0986 Z" id="Stroke-72" stroke="#444444" stroke-width="0.25" stroke-linejoin="round"></path>
                <path d="M34.2559,6.1992 C44.9709,6.1992 53.6559,11.2142 53.6559,17.3992 C53.6559,23.5852 44.9709,28.5982 34.2559,28.5982 C23.5419,28.5982 14.8569,23.5852 14.8569,17.3992 C14.8569,11.2142 23.5419,6.1992 34.2559,6.1992" id="Fill-74" fill="#E9D05D"></path>
                <path d="M34.2559,6.1992 C44.9709,6.1992 53.6559,11.2142 53.6559,17.3992 C53.6559,23.5852 44.9709,28.5982 34.2559,28.5982 C23.5419,28.5982 14.8569,23.5852 14.8569,17.3992 C14.8569,11.2142 23.5419,6.1992 34.2559,6.1992 Z" id="Stroke-76" stroke="#444444" stroke-width="0.25" stroke-linejoin="round"></path>
                <path d="M34.2559,3.5986 C43.5339,3.5986 51.0569,7.9416 51.0569,13.2986 C51.0569,18.6566 43.5339,22.9986 34.2559,22.9986 C24.9779,22.9986 17.4559,18.6566 17.4559,13.2986 C17.4559,7.9416 24.9779,3.5986 34.2559,3.5986" id="Fill-78" fill="#E9D05D"></path>
                <path d="M34.2559,3.5986 C43.5339,3.5986 51.0569,7.9416 51.0569,13.2986 C51.0569,18.6566 43.5339,22.9986 34.2559,22.9986 C24.9779,22.9986 17.4559,18.6566 17.4559,13.2986 C17.4559,7.9416 24.9779,3.5986 34.2559,3.5986 Z" id="Stroke-80" stroke="#444444" stroke-width="0.25" stroke-linejoin="round"></path>
                <path d="M34.2559,1.6992 C41.4359,1.6992 47.2559,5.0562 47.2559,9.1992 C47.2559,13.3412 41.4359,16.6992 34.2559,16.6992 C27.0759,16.6992 21.2559,13.3412 21.2559,9.1992 C21.2559,5.0562 27.0759,1.6992 34.2559,1.6992" id="Fill-82" fill="#E9D05D"></path>
                <path d="M34.2559,1.6992 C41.4359,1.6992 47.2559,5.0562 47.2559,9.1992 C47.2559,13.3412 41.4359,16.6992 34.2559,16.6992 C27.0759,16.6992 21.2559,13.3412 21.2559,9.1992 C21.2559,5.0562 27.0759,1.6992 34.2559,1.6992 Z" id="Stroke-84" stroke="#444444" stroke-width="0.25" stroke-linejoin="round"></path>
                <path d="M34.2559,0.8994 C38.3989,0.8994 41.7559,2.8244 41.7559,5.1994 C41.7559,7.5744 38.3989,9.4994 34.2559,9.4994 C30.1139,9.4994 26.7559,7.5744 26.7559,5.1994 C26.7559,2.8244 30.1139,0.8994 34.2559,0.8994" id="Fill-86" fill="#E9D05D"></path>
                <path d="M34.2559,0.8994 C38.3989,0.8994 41.7559,2.8244 41.7559,5.1994 C41.7559,7.5744 38.3989,9.4994 34.2559,9.4994 C30.1139,9.4994 26.7559,7.5744 26.7559,5.1994 C26.7559,2.8244 30.1139,0.8994 34.2559,0.8994 Z" id="Stroke-88" stroke="#444444" stroke-width="0.25" stroke-linejoin="round"></path>
            </g>
            <text id="-" font-family="HKGrotesk-Regular, HK Grotesk" font-size="9" font-weight="normal"></text>
            <g id="Group-110" transform="translate(96.000000, 0.008800)">
                <mask id="mask-6" fill="white">
                    <use xlink:href="#path-5"></use>
                </mask>
                <g id="Clip-91"></g>
                <text id="-" mask="url(#mask-6)" font-family="HKGrotesk-Regular, HK Grotesk" font-size="9" font-weight="normal"></text>
                <text id="prima" mask="url(#mask-6)" font-family="HKGrotesk-Regular, HK Grotesk" font-size="9.5" font-weight="normal" fill="#000000">
                    <tspan x="74.7505" y="43.8061445">p</tspan>
                    <tspan x="79.9875605" y="43.8061445" letter-spacing="0.01045">r</tspan>
                    <tspan x="83.695032" y="43.8061445">ima</tspan>
                </text>
                <text id="pubblicazione" mask="url(#mask-6)" font-family="HKGrotesk-Regular, HK Grotesk" font-size="9.5" font-weight="normal" letter-spacing="-0.0342" fill="#000000">
                    <tspan x="74.7505" y="54.8061445">p</tspan>
                    <tspan x="79.9162512" y="54.8061445">ubbli</tspan>
                    <tspan x="100.228995" y="54.8061445" letter-spacing="-0.0437">c</tspan>
                    <tspan x="104.666252" y="54.8061445">azi</tspan>
                    <tspan x="115.998528" y="54.8061445" letter-spacing="0.00665">o</tspan>
                    <tspan x="121.195852" y="54.8061445">ne</tspan>
                </text>
                <text id="ultima" mask="url(#mask-6)" font-family="HKGrotesk-Regular, HK Grotesk" font-size="9.5" font-weight="normal" fill="#000000">
                    <tspan x="74.751" y="6.61674453">ul</tspan>
                    <tspan x="82.3352285" y="6.61674453" letter-spacing="0.0057">t</tspan>
                    <tspan x="85.472032" y="6.61674453">ima</tspan>
                </text>
                <text id="ripubblicazione" mask="url(#mask-6)" font-family="HKGrotesk-Regular, HK Grotesk" font-size="9.5" font-weight="normal" letter-spacing="0.0114" fill="#000000">
                    <tspan x="74.751" y="17.6167445">r</tspan>
                    <tspan x="78.4594215" y="17.6167445">i</tspan>
                    <tspan x="80.7230934" y="17.6167445" letter-spacing="-0.0323">p</tspan>
                    <tspan x="85.8907445" y="17.6167445">ubb</tspan>
                    <tspan x="101.536985" y="17.6167445" letter-spacing="-0.00475">l</tspan>
                    <tspan x="103.935067" y="17.6167445">i</tspan>
                    <tspan x="106.198739" y="17.6167445" letter-spacing="-0.03895">c</tspan>
                    <tspan x="110.640746" y="17.6167445" letter-spacing="0.0057">a</tspan>
                    <tspan x="115.401084" y="17.6167445">zi</tspan>
                    <tspan x="121.978721" y="17.6167445" letter-spacing="0.0076">o</tspan>
                    <tspan x="127.176995" y="17.6167445">ne</tspan>
                </text>
                <path d="M36.9268,55.3994 L72.0098,55.3994" id="Stroke-92" stroke="#444444" stroke-width="0.228" mask="url(#mask-6)"></path>
                <path d="M34.6562,18.999 C51.5552,18.999 65.2562,26.924 65.2562,36.699 C65.2562,46.475 51.5552,54.399 34.6562,54.399 C17.7562,54.399 4.0562,46.475 4.0562,36.699 C4.0562,26.924 17.7562,18.999 34.6562,18.999" id="Fill-93" fill="#E9D05D" mask="url(#mask-6)"></path>
                <path d="M34.6562,18.999 C51.5552,18.999 65.2562,26.924 65.2562,36.699 C65.2562,46.475 51.5552,54.399 34.6562,54.399 C17.7562,54.399 4.0562,46.475 4.0562,36.699 C4.0562,26.924 17.7562,18.999 34.6562,18.999 Z" id="Stroke-94" stroke="#444444" stroke-width="0.25" stroke-linejoin="round" mask="url(#mask-6)"></path>
                <path d="M34.6562,17.1992 C49.3462,17.1992 61.2562,24.0942 61.2562,32.5982 C61.2562,41.1042 49.3462,47.9992 34.6562,47.9992 C19.9662,47.9992 8.0562,41.1042 8.0562,32.5982 C8.0562,24.0942 19.9662,17.1992 34.6562,17.1992" id="Fill-95" fill="#E9D05D" mask="url(#mask-6)"></path>
                <path d="M34.6562,17.1992 C49.3462,17.1992 61.2562,24.0942 61.2562,32.5982 C61.2562,41.1042 49.3462,47.9992 34.6562,47.9992 C19.9662,47.9992 8.0562,41.1042 8.0562,32.5982 C8.0562,24.0942 19.9662,17.1992 34.6562,17.1992 Z" id="Stroke-96" stroke="#444444" stroke-width="0.25" stroke-linejoin="round" mask="url(#mask-6)"></path>
                <path d="M34.6562,14.8994 C47.6902,14.8994 58.2562,20.9884 58.2562,28.4994 C58.2562,36.0094 47.6902,42.0984 34.6562,42.0984 C21.6222,42.0984 11.0562,36.0094 11.0562,28.4994 C11.0562,20.9884 21.6222,14.8994 34.6562,14.8994" id="Fill-97" fill="#476A70" mask="url(#mask-6)"></path>
                <path d="M34.6562,14.8994 C47.6902,14.8994 58.2562,20.9884 58.2562,28.4994 C58.2562,36.0094 47.6902,42.0984 34.6562,42.0984 C21.6222,42.0984 11.0562,36.0094 11.0562,28.4994 C11.0562,20.9884 21.6222,14.8994 34.6562,14.8994 Z" id="Stroke-98" stroke="#444444" stroke-width="0.25" stroke-linejoin="round" mask="url(#mask-6)"></path>
                <path d="M34.6562,12.0986 C46.4742,12.0986 56.0562,17.6506 56.0562,24.4986 C56.0562,31.3476 46.4742,36.8996 34.6562,36.8996 C22.8372,36.8996 13.2562,31.3476 13.2562,24.4986 C13.2562,17.6506 22.8372,12.0986 34.6562,12.0986" id="Fill-99" fill="#476A70" mask="url(#mask-6)"></path>
                <path d="M34.6562,12.0986 C46.4742,12.0986 56.0562,17.6506 56.0562,24.4986 C56.0562,31.3476 46.4742,36.8996 34.6562,36.8996 C22.8372,36.8996 13.2562,31.3476 13.2562,24.4986 C13.2562,17.6506 22.8372,12.0986 34.6562,12.0986 Z" id="Stroke-100" stroke="#444444" stroke-width="0.25" stroke-linejoin="round" mask="url(#mask-6)"></path>
                <path d="M34.6562,9.1992 C45.3702,9.1992 54.0562,14.2142 54.0562,20.3992 C54.0562,26.5852 45.3702,31.5982 34.6562,31.5982 C23.9412,31.5982 15.2562,26.5852 15.2562,20.3992 C15.2562,14.2142 23.9412,9.1992 34.6562,9.1992" id="Fill-101" fill="#F0BE96" mask="url(#mask-6)"></path>
                <path d="M34.6562,9.1992 C45.3702,9.1992 54.0562,14.2142 54.0562,20.3992 C54.0562,26.5852 45.3702,31.5982 34.6562,31.5982 C23.9412,31.5982 15.2562,26.5852 15.2562,20.3992 C15.2562,14.2142 23.9412,9.1992 34.6562,9.1992 Z" id="Stroke-102" stroke="#444444" stroke-width="0.25" stroke-linejoin="round" mask="url(#mask-6)"></path>
                <path d="M34.6562,6.5986 C43.9342,6.5986 51.4562,10.9416 51.4562,16.2986 C51.4562,21.6566 43.9342,25.9986 34.6562,25.9986 C25.3782,25.9986 17.8562,21.6566 17.8562,16.2986 C17.8562,10.9416 25.3782,6.5986 34.6562,6.5986" id="Fill-103" fill="#F0BE96" mask="url(#mask-6)"></path>
                <path d="M34.6562,6.5986 C43.9342,6.5986 51.4562,10.9416 51.4562,16.2986 C51.4562,21.6566 43.9342,25.9986 34.6562,25.9986 C25.3782,25.9986 17.8562,21.6566 17.8562,16.2986 C17.8562,10.9416 25.3782,6.5986 34.6562,6.5986 Z" id="Stroke-104" stroke="#444444" stroke-width="0.25" stroke-linejoin="round" mask="url(#mask-6)"></path>
                <path d="M34.6562,4.6992 C41.8362,4.6992 47.6562,8.0562 47.6562,12.1992 C47.6562,16.3412 41.8362,19.6992 34.6562,19.6992 C27.4762,19.6992 21.6562,16.3412 21.6562,12.1992 C21.6562,8.0562 27.4762,4.6992 34.6562,4.6992" id="Fill-105" fill="#F0BE96" mask="url(#mask-6)"></path>
                <path d="M34.6562,4.6992 C41.8362,4.6992 47.6562,8.0562 47.6562,12.1992 C47.6562,16.3412 41.8362,19.6992 34.6562,19.6992 C27.4762,19.6992 21.6562,16.3412 21.6562,12.1992 C21.6562,8.0562 27.4762,4.6992 34.6562,4.6992 Z" id="Stroke-106" stroke="#444444" stroke-width="0.25" stroke-linejoin="round" mask="url(#mask-6)"></path>
                <path d="M34.6562,3.8994 C38.7982,3.8994 42.1562,5.8244 42.1562,8.1994 C42.1562,10.5744 38.7982,12.4994 34.6562,12.4994 C30.5132,12.4994 27.1562,10.5744 27.1562,8.1994 C27.1562,5.8244 30.5132,3.8994 34.6562,3.8994" id="Fill-107" fill="#F0BE96" mask="url(#mask-6)"></path>
                <path d="M34.6562,3.8994 C38.7982,3.8994 42.1562,5.8244 42.1562,8.1994 C42.1562,10.5744 38.7982,12.4994 34.6562,12.4994 C30.5132,12.4994 27.1562,10.5744 27.1562,8.1994 C27.1562,5.8244 30.5132,3.8994 34.6562,3.8994 Z" id="Stroke-108" stroke="#444444" stroke-width="0.25" stroke-linejoin="round" mask="url(#mask-6)"></path>
                <path d="M35.2559,6.999 L72.0099,6.999" id="Stroke-109" stroke="#444444" stroke-width="0.228" mask="url(#mask-6)"></path>
                <text id="Testo-contenuto" mask="url(#mask-6)" font-family="HKGrotesk-Regular, HK Grotesk" font-size="9.5" font-weight="normal" letter-spacing="-0.90915" fill="#000000">
                    <tspan x="0.3994" y="70.2231445">T</tspan>
                    <tspan x="4.30983008" y="70.2231445">es</tspan>
                    <tspan x="13.1511387" y="70.2231445" letter-spacing="-0.04275">t</tspan>
                    <tspan x="16.1931055" y="70.2231445">o </tspan>
                    <tspan x="23.8933008" y="70.2231445" letter-spacing="-0.0494">c</tspan>
                    <tspan x="28.3155805" y="70.2231445">on</tspan>
                    <tspan x="38.6969281" y="70.2231445" letter-spacing="-0.0399">t</tspan>
                    <tspan x="41.7417449" y="70.2231445">e</tspan>
                    <tspan x="46.5566863" y="70.2231445" letter-spacing="-0.07885">n</tspan>
                    <tspan x="51.5850141" y="70.2231445">u</tspan>
                    <tspan x="56.7664105" y="70.2231445" letter-spacing="-0.04085">t</tspan>
                    <tspan x="59.8102773" y="70.2231445">o</tspan>
                </text>
            </g>
            <text id="-" font-family="HKGrotesk-Regular, HK Grotesk" font-size="9" font-weight="normal"></text>
            <text id="in-più-raccolte" font-family="HKGrotesk-Regular, HK Grotesk" font-size="9.5" font-weight="normal" fill="#000000">
                <tspan x="100.1948" y="81.2319445">i</tspan>
                <tspan x="102.458472" y="81.2319445" letter-spacing="0.0057">n</tspan>
                <tspan x="107.654846" y="81.2319445"> pi</tspan>
                <tspan x="117.6651" y="81.2319445" letter-spacing="0.00665">ù</tspan>
                <tspan x="122.853146" y="81.2319445"> </tspan>
                <tspan x="125.362668" y="81.2319445" letter-spacing="0.0114">r</tspan>
                <tspan x="129.071089" y="81.2319445">a</tspan>
                <tspan x="133.825728" y="81.2319445" letter-spacing="-0.05035">cc</tspan>
                <tspan x="142.668387" y="81.2319445">ol</tspan>
                <tspan x="150.261893" y="81.2319445" letter-spacing="-0.0418">t</tspan>
                <tspan x="153.30481" y="81.2319445">e</tspan>
            </text>
        </g>
    </g>
</svg>