<?xml version="1.0" encoding="UTF-8"?>
<svg width="257px" height="76px" viewBox="0 0 257 76" version="1.1" xmlns="http://www.w3.org/2000/svg" xmlns:xlink="http://www.w3.org/1999/xlink">
    <!-- Generator: Sketch 55.2 (78181) - https://sketchapp.com -->
    <title>modalita-cronologia</title>
    <desc>Created with Sketch.</desc>
    <defs>
        <polygon id="path-1" points="0 75.2161 255.95 75.2161 255.95 0.0001 0 0.0001"></polygon>
    </defs>
    <g id="modalita-cronologia" stroke="none" stroke-width="1" fill="none" fill-rule="evenodd">
        <g id="Group-101" transform="translate(1.000000, 0.000000)">
            <text id="1943" font-family="HKGrotesk-Regular, HK Grotesk" font-size="9.5" font-weight="normal" fill="#000000">
                <tspan x="18.0596" y="70.4392445">1943</tspan>
            </text>
            <text id="1985" font-family="HKGrotesk-Regular, HK Grotesk" font-size="9.5" font-weight="normal" fill="#000000">
                <tspan x="215.9912" y="70.4382445">1</tspan>
                <tspan x="221.348866" y="70.4382445" letter-spacing="-0.03705">9</tspan>
                <tspan x="226.632373" y="70.4382445">85</tspan>
            </text>
            <path d="M30.7246,15.2249 C47.6246,15.2249 61.3256,23.1499 61.3256,32.9249 C61.3256,42.7009 47.6246,50.6249 30.7246,50.6249 C13.8256,50.6249 0.1246,42.7009 0.1246,32.9249 C0.1246,23.1499 13.8256,15.2249 30.7246,15.2249" id="Fill-3" fill="#FF6347"></path>
            <path d="M30.7246,15.2249 C47.6246,15.2249 61.3256,23.1499 61.3256,32.9249 C61.3256,42.7009 47.6246,50.6249 30.7246,50.6249 C13.8256,50.6249 0.1246,42.7009 0.1246,32.9249 C0.1246,23.1499 13.8256,15.2249 30.7246,15.2249 Z" id="Stroke-5" stroke="#444444" stroke-width="0.25"></path>
            <path d="M30.7246,13.4251 C45.4156,13.4251 57.3256,20.3201 57.3256,28.8251 C57.3256,37.3301 45.4156,44.2251 30.7246,44.2251 C16.0346,44.2251 4.1246,37.3301 4.1246,28.8251 C4.1246,20.3201 16.0346,13.4251 30.7246,13.4251" id="Fill-7" fill="#FF6347"></path>
            <path d="M30.7246,13.4251 C45.4156,13.4251 57.3256,20.3201 57.3256,28.8251 C57.3256,37.3301 45.4156,44.2251 30.7246,44.2251 C16.0346,44.2251 4.1246,37.3301 4.1246,28.8251 C4.1246,20.3201 16.0346,13.4251 30.7246,13.4251 Z" id="Stroke-9" stroke="#444444" stroke-width="0.25"></path>
            <path d="M30.7246,11.1253 C43.7586,11.1253 54.3256,17.2143 54.3256,24.7253 C54.3256,32.2353 43.7586,38.3253 30.7246,38.3253 C17.6916,38.3253 7.1246,32.2353 7.1246,24.7253 C7.1246,17.2143 17.6916,11.1253 30.7246,11.1253" id="Fill-11" fill="#FF6347"></path>
            <path d="M30.7246,11.1253 C43.7586,11.1253 54.3256,17.2143 54.3256,24.7253 C54.3256,32.2353 43.7586,38.3253 30.7246,38.3253 C17.6916,38.3253 7.1246,32.2353 7.1246,24.7253 C7.1246,17.2143 17.6916,11.1253 30.7246,11.1253 Z" id="Stroke-13" stroke="#444444" stroke-width="0.25"></path>
            <path d="M30.7246,8.3255 C42.5436,8.3255 52.1246,13.8765 52.1246,20.7245 C52.1246,27.5735 42.5436,33.1255 30.7246,33.1255 C18.9066,33.1255 9.3256,27.5735 9.3256,20.7245 C9.3256,13.8765 18.9066,8.3255 30.7246,8.3255" id="Fill-15" fill="#FF6347"></path>
            <path d="M30.7246,8.3255 C42.5436,8.3255 52.1246,13.8765 52.1246,20.7245 C52.1246,27.5735 42.5436,33.1255 30.7246,33.1255 C18.9066,33.1255 9.3256,27.5735 9.3256,20.7245 C9.3256,13.8765 18.9066,8.3255 30.7246,8.3255 Z" id="Stroke-17" stroke="#444444" stroke-width="0.25"></path>
            <path d="M30.7246,5.4251 C41.4396,5.4251 50.1246,10.4401 50.1246,16.6251 C50.1246,22.8111 41.4396,27.8251 30.7246,27.8251 C20.0106,27.8251 11.3256,22.8111 11.3256,16.6251 C11.3256,10.4401 20.0106,5.4251 30.7246,5.4251" id="Fill-19" fill="#FF6347"></path>
            <path d="M30.7246,5.4251 C41.4396,5.4251 50.1246,10.4401 50.1246,16.6251 C50.1246,22.8111 41.4396,27.8251 30.7246,27.8251 C20.0106,27.8251 11.3256,22.8111 11.3256,16.6251 C11.3256,10.4401 20.0106,5.4251 30.7246,5.4251 Z" id="Stroke-21" stroke="#444444" stroke-width="0.25"></path>
            <path d="M30.7246,2.8255 C40.0026,2.8255 47.5256,7.1685 47.5256,12.5245 C47.5256,17.8825 40.0026,22.2245 30.7246,22.2245 C21.4466,22.2245 13.9246,17.8825 13.9246,12.5245 C13.9246,7.1685 21.4466,2.8255 30.7246,2.8255" id="Fill-23" fill="#FF6347"></path>
            <path d="M30.7246,2.8255 C40.0026,2.8255 47.5256,7.1685 47.5256,12.5245 C47.5256,17.8825 40.0026,22.2245 30.7246,22.2245 C21.4466,22.2245 13.9246,17.8825 13.9246,12.5245 C13.9246,7.1685 21.4466,2.8255 30.7246,2.8255 Z" id="Stroke-25" stroke="#444444" stroke-width="0.25"></path>
            <path d="M30.7246,0.9251 C37.9046,0.9251 43.7246,4.2821 43.7246,8.4251 C43.7246,12.5671 37.9046,15.9251 30.7246,15.9251 C23.5446,15.9251 17.7246,12.5671 17.7246,8.4251 C17.7246,4.2821 23.5446,0.9251 30.7246,0.9251" id="Fill-27" fill="#FF6347"></path>
            <path d="M30.7246,0.9251 C37.9046,0.9251 43.7246,4.2821 43.7246,8.4251 C43.7246,12.5671 37.9046,15.9251 30.7246,15.9251 C23.5446,15.9251 17.7246,12.5671 17.7246,8.4251 C17.7246,4.2821 23.5446,0.9251 30.7246,0.9251 Z" id="Stroke-29" stroke="#444444" stroke-width="0.25"></path>
            <path d="M30.7246,0.1253 C34.8676,0.1253 38.2246,2.0503 38.2246,4.4253 C38.2246,6.8003 34.8676,8.7253 30.7246,8.7253 C26.5826,8.7253 23.2246,6.8003 23.2246,4.4253 C23.2246,2.0503 26.5826,0.1253 30.7246,0.1253" id="Fill-31" fill="#FF6347"></path>
            <path d="M30.7246,0.1253 C34.8676,0.1253 38.2246,2.0503 38.2246,4.4253 C38.2246,6.8003 34.8676,8.7253 30.7246,8.7253 C26.5826,8.7253 23.2246,6.8003 23.2246,4.4253 C23.2246,2.0503 26.5826,0.1253 30.7246,0.1253 Z" id="Stroke-33" stroke="#444444" stroke-width="0.25"></path>
            <path d="M128.8252,15.2249 C145.7242,15.2249 159.4252,23.1499 159.4252,32.9249 C159.4252,42.7009 145.7242,50.6249 128.8252,50.6249 C111.9252,50.6249 98.2242,42.7009 98.2242,32.9249 C98.2242,23.1499 111.9252,15.2249 128.8252,15.2249" id="Fill-35" fill="#A45F55"></path>
            <path d="M128.8252,15.2249 C145.7242,15.2249 159.4252,23.1499 159.4252,32.9249 C159.4252,42.7009 145.7242,50.6249 128.8252,50.6249 C111.9252,50.6249 98.2242,42.7009 98.2242,32.9249 C98.2242,23.1499 111.9252,15.2249 128.8252,15.2249 Z" id="Stroke-37" stroke="#444444" stroke-width="0.25"></path>
            <path d="M128.8252,13.4251 C143.5152,13.4251 155.4252,20.3201 155.4252,28.8251 C155.4252,37.3301 143.5152,44.2251 128.8252,44.2251 C114.1342,44.2251 102.2242,37.3301 102.2242,28.8251 C102.2242,20.3201 114.1342,13.4251 128.8252,13.4251" id="Fill-39" fill="#A45F55"></path>
            <path d="M128.8252,13.4251 C143.5152,13.4251 155.4252,20.3201 155.4252,28.8251 C155.4252,37.3301 143.5152,44.2251 128.8252,44.2251 C114.1342,44.2251 102.2242,37.3301 102.2242,28.8251 C102.2242,20.3201 114.1342,13.4251 128.8252,13.4251 Z" id="Stroke-41" stroke="#444444" stroke-width="0.25"></path>
            <path d="M128.8252,11.1253 C141.8592,11.1253 152.4252,17.2143 152.4252,24.7253 C152.4252,32.2353 141.8592,38.3253 128.8252,38.3253 C115.7912,38.3253 105.2242,32.2353 105.2242,24.7253 C105.2242,17.2143 115.7912,11.1253 128.8252,11.1253" id="Fill-43" fill="#A45F55"></path>
            <path d="M128.8252,11.1253 C141.8592,11.1253 152.4252,17.2143 152.4252,24.7253 C152.4252,32.2353 141.8592,38.3253 128.8252,38.3253 C115.7912,38.3253 105.2242,32.2353 105.2242,24.7253 C105.2242,17.2143 115.7912,11.1253 128.8252,11.1253 Z" id="Stroke-45" stroke="#444444" stroke-width="0.25"></path>
            <path d="M128.8252,8.3255 C140.6432,8.3255 150.2242,13.8765 150.2242,20.7245 C150.2242,27.5735 140.6432,33.1255 128.8252,33.1255 C117.0062,33.1255 107.4252,27.5735 107.4252,20.7245 C107.4252,13.8765 117.0062,8.3255 128.8252,8.3255" id="Fill-47" fill="#A45F55"></path>
            <path d="M128.8252,8.3255 C140.6432,8.3255 150.2242,13.8765 150.2242,20.7245 C150.2242,27.5735 140.6432,33.1255 128.8252,33.1255 C117.0062,33.1255 107.4252,27.5735 107.4252,20.7245 C107.4252,13.8765 117.0062,8.3255 128.8252,8.3255 Z" id="Stroke-49" stroke="#444444" stroke-width="0.25"></path>
            <path d="M128.8252,5.4251 C139.5392,5.4251 148.2242,10.4401 148.2242,16.6251 C148.2242,22.8111 139.5392,27.8251 128.8252,27.8251 C118.1102,27.8251 109.4252,22.8111 109.4252,16.6251 C109.4252,10.4401 118.1102,5.4251 128.8252,5.4251" id="Fill-51" fill="#A45F55"></path>
            <path d="M128.8252,5.4251 C139.5392,5.4251 148.2242,10.4401 148.2242,16.6251 C148.2242,22.8111 139.5392,27.8251 128.8252,27.8251 C118.1102,27.8251 109.4252,22.8111 109.4252,16.6251 C109.4252,10.4401 118.1102,5.4251 128.8252,5.4251 Z" id="Stroke-53" stroke="#444444" stroke-width="0.25"></path>
            <path d="M128.8252,2.8255 C138.1032,2.8255 145.6252,7.1685 145.6252,12.5245 C145.6252,17.8825 138.1032,22.2245 128.8252,22.2245 C119.5472,22.2245 112.0252,17.8825 112.0252,12.5245 C112.0252,7.1685 119.5472,2.8255 128.8252,2.8255" id="Fill-55" fill="#A45F55"></path>
            <path d="M128.8252,2.8255 C138.1032,2.8255 145.6252,7.1685 145.6252,12.5245 C145.6252,17.8825 138.1032,22.2245 128.8252,22.2245 C119.5472,22.2245 112.0252,17.8825 112.0252,12.5245 C112.0252,7.1685 119.5472,2.8255 128.8252,2.8255 Z" id="Stroke-57" stroke="#444444" stroke-width="0.25"></path>
            <path d="M128.8252,0.9251 C136.0052,0.9251 141.8252,4.2821 141.8252,8.4251 C141.8252,12.5671 136.0052,15.9251 128.8252,15.9251 C121.6452,15.9251 115.8252,12.5671 115.8252,8.4251 C115.8252,4.2821 121.6452,0.9251 128.8252,0.9251" id="Fill-59" fill="#A45F55"></path>
            <path d="M128.8252,0.9251 C136.0052,0.9251 141.8252,4.2821 141.8252,8.4251 C141.8252,12.5671 136.0052,15.9251 128.8252,15.9251 C121.6452,15.9251 115.8252,12.5671 115.8252,8.4251 C115.8252,4.2821 121.6452,0.9251 128.8252,0.9251 Z" id="Stroke-61" stroke="#444444" stroke-width="0.25"></path>
            <path d="M128.8252,0.1253 C132.9672,0.1253 136.3252,2.0503 136.3252,4.4253 C136.3252,6.8003 132.9672,8.7253 128.8252,8.7253 C124.6822,8.7253 121.3252,6.8003 121.3252,4.4253 C121.3252,2.0503 124.6822,0.1253 128.8252,0.1253" id="Fill-63" fill="#A45F55"></path>
            <path d="M128.8252,0.1253 C132.9672,0.1253 136.3252,2.0503 136.3252,4.4253 C136.3252,6.8003 132.9672,8.7253 128.8252,8.7253 C124.6822,8.7253 121.3252,6.8003 121.3252,4.4253 C121.3252,2.0503 124.6822,0.1253 128.8252,0.1253 Z" id="Stroke-65" stroke="#444444" stroke-width="0.25"></path>
            <path d="M225.2246,15.2249 C242.1246,15.2249 255.8256,23.1499 255.8256,32.9249 C255.8256,42.7009 242.1246,50.6249 225.2246,50.6249 C208.3256,50.6249 194.6246,42.7009 194.6246,32.9249 C194.6246,23.1499 208.3256,15.2249 225.2246,15.2249" id="Fill-67" fill="#455A64"></path>
            <path d="M225.2246,15.2249 C242.1246,15.2249 255.8256,23.1499 255.8256,32.9249 C255.8256,42.7009 242.1246,50.6249 225.2246,50.6249 C208.3256,50.6249 194.6246,42.7009 194.6246,32.9249 C194.6246,23.1499 208.3256,15.2249 225.2246,15.2249 Z" id="Stroke-69" stroke="#444444" stroke-width="0.25"></path>
            <path d="M225.2246,13.4251 C239.9156,13.4251 251.8256,20.3201 251.8256,28.8251 C251.8256,37.3301 239.9156,44.2251 225.2246,44.2251 C210.5346,44.2251 198.6246,37.3301 198.6246,28.8251 C198.6246,20.3201 210.5346,13.4251 225.2246,13.4251" id="Fill-71" fill="#455A64"></path>
            <path d="M225.2246,13.4251 C239.9156,13.4251 251.8256,20.3201 251.8256,28.8251 C251.8256,37.3301 239.9156,44.2251 225.2246,44.2251 C210.5346,44.2251 198.6246,37.3301 198.6246,28.8251 C198.6246,20.3201 210.5346,13.4251 225.2246,13.4251 Z" id="Stroke-73" stroke="#444444" stroke-width="0.25"></path>
            <path d="M225.2246,11.1253 C238.2586,11.1253 248.8256,17.2143 248.8256,24.7253 C248.8256,32.2353 238.2586,38.3253 225.2246,38.3253 C212.1916,38.3253 201.6246,32.2353 201.6246,24.7253 C201.6246,17.2143 212.1916,11.1253 225.2246,11.1253" id="Fill-75" fill="#455A64"></path>
            <path d="M225.2246,11.1253 C238.2586,11.1253 248.8256,17.2143 248.8256,24.7253 C248.8256,32.2353 238.2586,38.3253 225.2246,38.3253 C212.1916,38.3253 201.6246,32.2353 201.6246,24.7253 C201.6246,17.2143 212.1916,11.1253 225.2246,11.1253 Z" id="Stroke-77" stroke="#444444" stroke-width="0.25"></path>
            <path d="M225.2246,8.3255 C237.0436,8.3255 246.6246,13.8765 246.6246,20.7245 C246.6246,27.5735 237.0436,33.1255 225.2246,33.1255 C213.4066,33.1255 203.8256,27.5735 203.8256,20.7245 C203.8256,13.8765 213.4066,8.3255 225.2246,8.3255" id="Fill-79" fill="#455A64"></path>
            <path d="M225.2246,8.3255 C237.0436,8.3255 246.6246,13.8765 246.6246,20.7245 C246.6246,27.5735 237.0436,33.1255 225.2246,33.1255 C213.4066,33.1255 203.8256,27.5735 203.8256,20.7245 C203.8256,13.8765 213.4066,8.3255 225.2246,8.3255 Z" id="Stroke-81" stroke="#444444" stroke-width="0.25"></path>
            <path d="M225.2246,5.4251 C235.9396,5.4251 244.6246,10.4401 244.6246,16.6251 C244.6246,22.8111 235.9396,27.8251 225.2246,27.8251 C214.5106,27.8251 205.8256,22.8111 205.8256,16.6251 C205.8256,10.4401 214.5106,5.4251 225.2246,5.4251" id="Fill-83" fill="#455A64"></path>
            <path d="M225.2246,5.4251 C235.9396,5.4251 244.6246,10.4401 244.6246,16.6251 C244.6246,22.8111 235.9396,27.8251 225.2246,27.8251 C214.5106,27.8251 205.8256,22.8111 205.8256,16.6251 C205.8256,10.4401 214.5106,5.4251 225.2246,5.4251 Z" id="Stroke-85" stroke="#444444" stroke-width="0.25"></path>
            <path d="M225.2246,2.8255 C234.5026,2.8255 242.0256,7.1685 242.0256,12.5245 C242.0256,17.8825 234.5026,22.2245 225.2246,22.2245 C215.9466,22.2245 208.4246,17.8825 208.4246,12.5245 C208.4246,7.1685 215.9466,2.8255 225.2246,2.8255" id="Fill-87" fill="#455A64"></path>
            <path d="M225.2246,2.8255 C234.5026,2.8255 242.0256,7.1685 242.0256,12.5245 C242.0256,17.8825 234.5026,22.2245 225.2246,22.2245 C215.9466,22.2245 208.4246,17.8825 208.4246,12.5245 C208.4246,7.1685 215.9466,2.8255 225.2246,2.8255 Z" id="Stroke-89" stroke="#444444" stroke-width="0.25"></path>
            <path d="M225.2246,0.9251 C232.4046,0.9251 238.2246,4.2821 238.2246,8.4251 C238.2246,12.5671 232.4046,15.9251 225.2246,15.9251 C218.0446,15.9251 212.2246,12.5671 212.2246,8.4251 C212.2246,4.2821 218.0446,0.9251 225.2246,0.9251" id="Fill-91" fill="#455A64"></path>
            <path d="M225.2246,0.9251 C232.4046,0.9251 238.2246,4.2821 238.2246,8.4251 C238.2246,12.5671 232.4046,15.9251 225.2246,15.9251 C218.0446,15.9251 212.2246,12.5671 212.2246,8.4251 C212.2246,4.2821 218.0446,0.9251 225.2246,0.9251 Z" id="Stroke-93" stroke="#444444" stroke-width="0.25"></path>
            <path d="M225.2246,0.1253 C229.3676,0.1253 232.7246,2.0503 232.7246,4.4253 C232.7246,6.8003 229.3676,8.7253 225.2246,8.7253 C221.0826,8.7253 217.7246,6.8003 217.7246,4.4253 C217.7246,2.0503 221.0826,0.1253 225.2246,0.1253" id="Fill-95" fill="#455A64"></path>
            <path d="M225.2246,0.1253 C229.3676,0.1253 232.7246,2.0503 232.7246,4.4253 C232.7246,6.8003 229.3676,8.7253 225.2246,8.7253 C221.0826,8.7253 217.7246,6.8003 217.7246,4.4253 C217.7246,2.0503 221.0826,0.1253 225.2246,0.1253 Z" id="Stroke-97" stroke="#444444" stroke-width="0.25"></path>
            <mask id="mask-2" fill="white">
                <use xlink:href="#path-1"></use>
            </mask>
            <g id="Clip-100"></g>
            <polygon id="Fill-99" fill="#566973" mask="url(#mask-2)" points="29.625 61.6251 226.625 61.6251 226.625 60.6251 29.625 60.6251"></polygon>
        </g>
    </g>
</svg>