<?xml version="1.0" encoding="UTF-8"?>
<svg width="164px" height="90px" viewBox="0 0 164 90" version="1.1" xmlns="http://www.w3.org/2000/svg" xmlns:xlink="http://www.w3.org/1999/xlink">
    <!-- Generator: Sketch 55.2 (78181) - https://sketchapp.com -->
    <title>positioning</title>
    <desc>Created with Sketch.</desc>
    <defs>
        <polygon id="path-1" points="0.5 0.41575 0.9621 0.41575 0.9621 0.91575 0.5 0.91575"></polygon>
        <polygon id="path-3" points="0.180616514 0.153264407 0.896212844 0.153264407 0.896212844 0.711864407 0.180616514 0.711864407"></polygon>
        <polygon id="path-5" points="0.71559633 0.081579661 1.37695046 0.081579661 1.37695046 0.793444068 0.71559633 0.793444068"></polygon>
        <polygon id="path-7" points="0.4162 0.1076 0.9162 0.1076 0.9162 0.5 0.4162 0.5"></polygon>
        <path d="M1.86853333,1.512 C-0.141533333,2.6201 -0.1408,4.4156 1.86853333,5.5237 L1.86853333,5.5237 C3.8786,6.6311 7.13826667,6.6318 9.14833333,5.5237 L9.14833333,5.5237 C11.1591333,4.4156 11.1584,2.6194 9.14833333,1.512 L9.14833333,1.512 C8.14366667,0.9583 6.8266,0.6811 5.5088,0.6811 L5.5088,0.6811 C4.19173333,0.6811 2.87393333,0.9583 1.86853333,1.512 L1.86853333,1.512 Z" id="path-9"></path>
        <path d="M2.512,1.49123077 C-0.498909091,3.14584615 -0.498909091,5.82853846 2.51418182,7.48453846 L2.51418182,7.48453846 C5.52436364,9.13846154 10.4065455,9.13915385 13.4189091,7.48453846 L13.4189091,7.48453846 C16.4312727,5.82853846 16.4298182,3.14584615 13.4196364,1.49123077 L13.4196364,1.49123077 C11.9127273,0.663230769 9.93890909,0.249230769 7.96509091,0.249230769 L7.96509091,0.249230769 C5.99127273,0.249230769 4.01818182,0.663230769 2.512,1.49123077 L2.512,1.49123077 Z" id="path-11"></path>
        <path d="M1.3818,1.034 C0.154,1.70866667 0.1526,2.804 1.3804,3.47933333 L1.3804,3.47933333 C2.6096,4.15466667 4.6011,4.15466667 5.8282,3.478 L5.8282,3.478 C7.0567,2.804 7.0574,1.70866667 5.8282,1.034 L5.8282,1.034 C5.215,0.696 4.4107,0.527333333 3.6057,0.527333333 L3.6057,0.527333333 C2.8014,0.527333333 1.9957,0.696 1.3818,1.034 L1.3818,1.034 Z" id="path-13"></path>
        <path d="M1.5036,0.586666667 C0.2751,1.262 0.2751,2.35666667 1.5029,3.03133333 L1.5029,3.03133333 C2.7314,3.70733333 4.7215,3.70733333 5.9507,3.03133333 L5.9507,3.03133333 C7.1778,2.35666667 7.1792,1.262 5.9507,0.586666667 L5.9507,0.586666667 C5.3361,0.249333333 4.5311,0.0806666667 3.7268,0.0806666667 L3.7268,0.0806666667 C2.9218,0.0806666667 2.1168,0.249333333 1.5036,0.586666667 L1.5036,0.586666667 Z" id="path-15"></path>
        <path d="M0.884,0.586 C-0.285333333,1.26066667 -0.286,2.35533333 0.884,3.03066667 L0.884,3.03066667 C2.05333333,3.70666667 3.95066667,3.706 5.11933333,3.03066667 L5.11933333,3.03066667 C6.28866667,2.35533333 6.28866667,1.26066667 5.11933333,0.586 L5.11933333,0.586 C4.53466667,0.248666667 3.768,0.08 3.00133333,0.08 L3.00133333,0.08 C2.23533333,0.08 1.46866667,0.248666667 0.884,0.586 L0.884,0.586 Z" id="path-17"></path>
        <path d="M1.6016,1.29133333 C-0.4092,2.34666667 -0.4092,4.05666667 1.6016,5.112 L1.6016,5.112 C3.61166667,6.16666667 6.86986667,6.16733333 8.88066667,5.112 L8.88066667,5.112 C10.8907333,4.05666667 10.8907333,2.34666667 8.8814,1.29066667 L8.8814,1.29066667 C7.876,0.763333333 6.55893333,0.5 5.24186667,0.5 L5.24186667,0.5 C3.9248,0.5 2.607,0.764 1.6016,1.29133333 L1.6016,1.29133333 Z" id="path-19"></path>
        <path d="M0.1645,2.25428571 C-0.1239,3.26357143 1.0304,4.21928571 2.7433,4.38928571 L2.7433,4.38928571 C4.4555,4.56 6.0781,3.88 6.3672,2.87142857 L6.3672,2.87142857 C6.6556,1.86142857 5.5013,0.905714286 3.7884,0.736428571 L3.7884,0.736428571 C3.612,0.718571429 3.4363,0.71 3.2627,0.71 L3.2627,0.71 C1.7556,0.71 0.4242,1.35 0.1645,2.25428571 L0.1645,2.25428571 Z" id="path-21"></path>
        <path d="M0.1771,1.672 C-0.1113,2.61333333 1.0416,3.50466667 2.7538,3.66466667 L2.7538,3.66466667 C4.4674,3.82266667 6.0893,3.18866667 6.3777,2.24666667 L6.3777,2.24666667 C6.6668,1.30533333 5.5132,0.413333333 3.7996,0.254666667 L3.7996,0.254666667 C3.6225,0.238 3.4461,0.23 3.2725,0.23 L3.2725,0.23 C1.7661,0.230666667 0.4347,0.827333333 0.1771,1.672 L0.1771,1.672 Z" id="path-23"></path>
        <path d="M0.1659,1.70866667 C-0.1225,2.65066667 1.0311,3.54333333 2.7433,3.70133333 L2.7433,3.70133333 C4.4548,3.86066667 6.0788,3.226 6.3679,2.284 L6.3679,2.284 C6.657,1.34266667 5.5027,0.451333333 3.7898,0.292 L3.7898,0.292 C3.6127,0.276 3.4363,0.268 3.2627,0.268 L3.2627,0.268 C1.7556,0.268 0.4256,0.865333333 0.1659,1.70866667 L0.1659,1.70866667 Z" id="path-25"></path>
        <path d="M2.12405556,1.61818182 C-0.3185,3.03781818 -0.319222222,5.34109091 2.12405556,6.76145455 L2.12405556,6.76145455 C4.56805556,8.18181818 8.52944444,8.18181818 10.972,6.76218182 L10.972,6.76218182 C13.4152778,5.34109091 13.4152778,3.03781818 10.972,1.61745455 L10.972,1.61745455 C9.75072222,0.907636364 8.151,0.552727273 6.54983333,0.552727273 L6.54983333,0.552727273 C4.94794444,0.552727273 3.34605556,0.908363636 2.12405556,1.61818182 L2.12405556,1.61818182 Z" id="path-27"></path>
    </defs>
    <g id="positioning" stroke="none" stroke-width="1" fill="none" fill-rule="evenodd">
        <path d="M73.3349344,2.31 L73.9929344,2.69" id="Stroke-1" stroke="#999999" stroke-width="0.19" stroke-linecap="round"></path>
        <path d="M75.1639344,3 L149.163934,46" id="Stroke-2" stroke="#999999" stroke-width="0.19" stroke-linecap="round" stroke-dasharray="1.506,1.506"></path>
        <path d="M149.334934,46.31 L149.992934,46.69" id="Stroke-3" stroke="#999999" stroke-width="0.19" stroke-linecap="round"></path>
        <path d="M59.3349344,11.31 L59.9929344,11.69" id="Stroke-4" stroke="#999999" stroke-width="0.19" stroke-linecap="round"></path>
        <path d="M60.1639344,12 L134.163934,55" id="Stroke-5" stroke="#999999" stroke-width="0.19" stroke-linecap="round" stroke-dasharray="1.506,1.506"></path>
        <path d="M135.334934,54.31 L135.992934,54.69" id="Stroke-6" stroke="#999999" stroke-width="0.19" stroke-linecap="round"></path>
        <path d="M45.3349344,19.31 L45.9929344,19.69" id="Stroke-7" stroke="#999999" stroke-width="0.19" stroke-linecap="round"></path>
        <path d="M46.1639344,20 L120.163934,63" id="Stroke-8" stroke="#999999" stroke-width="0.19" stroke-linecap="round" stroke-dasharray="1.506,1.506"></path>
        <path d="M120.334934,62.31 L120.992934,62.69" id="Stroke-9" stroke="#999999" stroke-width="0.19" stroke-linecap="round"></path>
        <path d="M31.3354344,27.31 L31.9924344,27.69" id="Stroke-10" stroke="#999999" stroke-width="0.19" stroke-linecap="round"></path>
        <path d="M32.1639344,28 L106.163934,71" id="Stroke-11" stroke="#999999" stroke-width="0.19" stroke-linecap="round" stroke-dasharray="1.506,1.506"></path>
        <path d="M106.335434,71.31 L106.992434,71.69" id="Stroke-12" stroke="#999999" stroke-width="0.19" stroke-linecap="round"></path>
        <path d="M16.3349344,35.31 L16.9929344,35.69" id="Stroke-13" stroke="#999999" stroke-width="0.19" stroke-linecap="round"></path>
        <path d="M18.1639344,36 L92.1639344,79" id="Stroke-14" stroke="#999999" stroke-width="0.19" stroke-linecap="round" stroke-dasharray="1.506,1.506"></path>
        <path d="M92.3349344,79.31 L92.9929344,79.69" id="Stroke-15" stroke="#999999" stroke-width="0.19" stroke-linecap="round"></path>
        <g id="Group-18" transform="translate(2.163934, 43.000000)">
            <mask id="mask-2" fill="white">
                <use xlink:href="#path-1"></use>
            </mask>
            <g id="Clip-17"></g>
            <path d="M0.5476,0.57075 L0.8766,0.76075" id="Stroke-16" stroke="#999999" stroke-width="0.19" stroke-linecap="round" mask="url(#mask-2)"></path>
        </g>
        <path d="M4.16393443,44 L78.1639344,87" id="Stroke-19" stroke="#999999" stroke-width="0.19" stroke-linecap="round" stroke-dasharray="1.506,1.506"></path>
        <g id="Group-26" transform="translate(2.163934, 46.000000)">
            <g id="Group-22" transform="translate(76.568807, 40.576271)">
                <mask id="mask-4" fill="white">
                    <use xlink:href="#path-3"></use>
                </mask>
                <g id="Clip-21"></g>
                <path d="M0.302983486,0.373942373 L0.773845872,0.644450847" id="Stroke-20" stroke="#999999" stroke-width="0.19" stroke-linecap="round" mask="url(#mask-4)"></path>
            </g>
            <g id="Group-25">
                <mask id="mask-6" fill="white">
                    <use xlink:href="#path-5"></use>
                </mask>
                <g id="Clip-24"></g>
                <path d="M0.783721101,0.572766102 L1.25458349,0.302257627" id="Stroke-23" stroke="#999999" stroke-width="0.19" stroke-linecap="round" mask="url(#mask-6)"></path>
            </g>
        </g>
        <path d="M4.16393443,46 L78.1639344,3" id="Stroke-27" stroke="#999999" stroke-width="0.19" stroke-linecap="round" stroke-dasharray="1.506,1.506"></path>
        <path d="M78.3349344,2.69 L78.9929344,2.31" id="Stroke-28" stroke="#999999" stroke-width="0.19" stroke-linecap="round"></path>
        <path d="M16.3349344,54.69 L16.9929344,54.31" id="Stroke-29" stroke="#999999" stroke-width="0.19" stroke-linecap="round"></path>
        <path d="M18.1639344,54 L92.1639344,11" id="Stroke-30" stroke="#999999" stroke-width="0.19" stroke-linecap="round" stroke-dasharray="1.506,1.506"></path>
        <path d="M92.3349344,11.69 L92.9929344,11.31" id="Stroke-31" stroke="#999999" stroke-width="0.19" stroke-linecap="round"></path>
        <path d="M31.3354344,62.69 L31.9924344,62.31" id="Stroke-32" stroke="#999999" stroke-width="0.19" stroke-linecap="round"></path>
        <path d="M32.1639344,62 L106.163934,19" id="Stroke-33" stroke="#999999" stroke-width="0.19" stroke-linecap="round" stroke-dasharray="1.506,1.506"></path>
        <path d="M106.335434,19.69 L106.992434,19.31" id="Stroke-34" stroke="#999999" stroke-width="0.19" stroke-linecap="round"></path>
        <path d="M45.3349344,71.69 L45.9929344,71.31" id="Stroke-35" stroke="#999999" stroke-width="0.19" stroke-linecap="round"></path>
        <path d="M46.1639344,71 L120.163934,28" id="Stroke-36" stroke="#999999" stroke-width="0.19" stroke-linecap="round" stroke-dasharray="1.506,1.506"></path>
        <path d="M120.334934,27.69 L120.992934,27.31" id="Stroke-37" stroke="#999999" stroke-width="0.19" stroke-linecap="round"></path>
        <path d="M59.3349344,79.69 L59.9929344,79.31" id="Stroke-38" stroke="#999999" stroke-width="0.19" stroke-linecap="round"></path>
        <path d="M60.1639344,79 L134.163934,36" id="Stroke-39" stroke="#999999" stroke-width="0.19" stroke-linecap="round" stroke-dasharray="1.506,1.506"></path>
        <path d="M135.334934,35.69 L135.992934,35.31" id="Stroke-40" stroke="#999999" stroke-width="0.19" stroke-linecap="round"></path>
        <g id="Group-43" transform="translate(73.163934, 87.000000)">
            <mask id="mask-8" fill="white">
                <use xlink:href="#path-7"></use>
            </mask>
            <g id="Clip-42"></g>
            <path d="M0.5017,0.4526 L0.8307,0.2626" id="Stroke-41" stroke="#999999" stroke-width="0.19" stroke-linecap="round" mask="url(#mask-8)"></path>
        </g>
        <path d="M75.1639344,87 L149.163934,44" id="Stroke-44" stroke="#999999" stroke-width="0.19" stroke-linecap="round" stroke-dasharray="1.506,1.506"></path>
        <path d="M149.334934,43.69 L149.992934,43.31" id="Stroke-45" stroke="#999999" stroke-width="0.19" stroke-linecap="round"></path>
        <path d="M66.1638508,65.5025677 C63.9596066,64.2424296 63.3447347,62.3320347 64.5873479,60.6971843 C64.6102268,60.6433505 64.6416854,60.5895166 64.6860134,60.5399327 C65.568283,59.4901718 65.0956897,59.2195856 64.8411613,59.0743758 C64.6138017,58.9433327 64.2656126,58.8144147 63.8080335,58.6890384 C63.7293871,58.6677882 63.6564604,58.6415796 63.5871086,58.613246 C62.9915408,58.4347441 62.485344,58.2250753 62.0456391,57.972906 C59.5368187,56.538516 59.5368187,54.203825 62.0449241,52.7687268 C64.2877766,51.4859217 67.8089906,51.3414202 70.3578491,52.4025146 C70.4436452,52.4258899 70.5258665,52.4563485 70.601653,52.4917655 C71.5110914,52.9047282 72.0029889,52.92102 72.2925507,52.8983531 C72.8845437,52.8508943 73.6252498,52.5186825 74.4317329,51.9399681 C74.4939351,51.8946343 74.5640019,51.8542589 74.6390735,51.8188419 C74.7863567,51.7097574 74.9372148,51.6042146 75.1102369,51.5050469 C78.6185816,49.4983177 84.3254507,49.4983177 87.8345104,51.5050469 C90.9131596,53.2659819 91.3028168,56.060386 88.8061509,58.0904905 C88.7639679,58.1471578 88.7074855,58.2024084 88.6402785,58.2548256 C86.9979986,59.4922968 87.6364644,59.867009 88.1119177,60.1390119 L88.1183524,60.1425536 C88.2656356,60.2268461 88.4350829,60.307597 88.6195445,60.3883478 C88.6717371,60.4110147 88.7203549,60.4358066 88.7653978,60.4613069 C88.7789822,60.4690986 88.7904217,60.4754737 88.8025761,60.4839738 C88.9891826,60.5647246 89.1400407,60.6369754 89.2823192,60.7184346 C91.7911395,62.1528245 91.7911395,64.4882238 89.2823192,65.9233221 C86.7720689,67.3591287 82.6903205,67.3584204 80.1815001,65.9240305 C80.1128633,65.8843634 80.0506611,65.8425713 79.9906039,65.8014875 C79.9691548,65.7901541 79.8797839,65.7391535 79.856905,65.7242784 C79.7582395,65.6584027 79.6581441,65.596777 79.5559037,65.5386931 C78.8094778,65.1115637 78.194606,64.8926864 76.5130028,65.7221534 C76.4307816,65.7611121 76.3442705,65.7958208 76.2534697,65.8227377 C73.2520369,67.1862936 68.8871614,67.060209 66.1638508,65.5025677 Z" id="Stroke-46" stroke="#000000" stroke-width="0.5"></path>
        <g id="Group-50" transform="translate(79.163934, 60.000000)">
            <mask id="mask-10" fill="white">
                <use xlink:href="#path-9"></use>
            </mask>
            <g id="Clip-49"></g>
            <polygon id="Fill-48" fill="#455A64" mask="url(#mask-10)" points="5.50894667 -3.35104 17.9741467 3.51806 5.50894667 10.38716 -6.95625333 3.51806"></polygon>
        </g>
        <g id="Group-53" transform="translate(73.163934, 51.000000)">
            <mask id="mask-12" fill="white">
                <use xlink:href="#path-11"></use>
            </mask>
            <g id="Clip-52"></g>
            <polygon id="Fill-51" fill="#FF6347" mask="url(#mask-12)" points="7.9656 -4.33239231 24.0143273 4.48691538 7.96632727 13.3069154 -8.0824 4.48691538"></polygon>
        </g>
        <g id="Group-56" transform="translate(44.163934, 49.000000)">
            <mask id="mask-14" fill="white">
                <use xlink:href="#path-13"></use>
            </mask>
            <g id="Clip-55"></g>
            <polygon id="Fill-54" fill="#FF6347" mask="url(#mask-14)" points="3.60563 -2.9102 13.00243 2.2558 3.60423 7.42313333 -5.79187 2.25713333"></polygon>
        </g>
        <g id="Group-59" transform="translate(54.163934, 44.000000)">
            <mask id="mask-16" fill="white">
                <use xlink:href="#path-15"></use>
            </mask>
            <g id="Clip-58"></g>
            <polygon id="Fill-57" fill="#FF6347" mask="url(#mask-16)" points="3.72729 -3.35746667 13.12339 1.80853333 3.72659 6.9752 -5.67021 1.8092"></polygon>
        </g>
        <g id="Group-62" transform="translate(48.163934, 46.000000)">
            <mask id="mask-18" fill="white">
                <use xlink:href="#path-17"></use>
            </mask>
            <g id="Clip-61"></g>
            <polygon id="Fill-60" fill="#FF6347" mask="url(#mask-18)" points="3.00166667 -3.35813333 11.951 1.80853333 3.00166667 6.9752 -5.94833333 1.80853333"></polygon>
        </g>
        <g id="Group-65" transform="translate(61.163934, 52.000000)">
            <mask id="mask-20" fill="white">
                <use xlink:href="#path-19"></use>
            </mask>
            <g id="Clip-64"></g>
            <polygon id="Fill-63" fill="#455A64" mask="url(#mask-20)" points="5.24186667 -3.34053333 17.7063333 3.20146667 5.24113333 9.74346667 -7.22333333 3.20146667"></polygon>
        </g>
        <g id="Group-68" transform="translate(81.163934, 36.000000)">
            <mask id="mask-22" fill="white">
                <use xlink:href="#path-21"></use>
            </mask>
            <g id="Clip-67"></g>
            <polygon id="Fill-66" fill="#455A64" mask="url(#mask-22)" points="3.26585 -2.973 12.66335 2.56271429 3.26585 8.09842857 -6.13165 2.56271429"></polygon>
        </g>
        <g id="Group-71" transform="translate(87.163934, 39.000000)">
            <mask id="mask-24" fill="white">
                <use xlink:href="#path-23"></use>
            </mask>
            <g id="Clip-70"></g>
            <polygon id="Fill-69" fill="#455A64" mask="url(#mask-24)" points="3.27684 -3.20773333 12.67504 1.9596 3.27754 7.12626667 -6.11996 1.95893333"></polygon>
        </g>
        <g id="Group-74" transform="translate(89.163934, 35.000000)">
            <mask id="mask-26" fill="white">
                <use xlink:href="#path-25"></use>
            </mask>
            <g id="Clip-73"></g>
            <polygon id="Fill-72" fill="#455A64" mask="url(#mask-26)" points="3.26655 -3.17 12.66405 1.99666667 3.26725 7.16333333 -6.13025 1.99666667"></polygon>
        </g>
        <g id="Group-77" transform="translate(65.163934, 58.000000)">
            <mask id="mask-28" fill="white">
                <use xlink:href="#path-27"></use>
            </mask>
            <g id="Clip-76"></g>
            <polygon id="Fill-75" fill="#FF6347" mask="url(#mask-28)" points="6.54903889 -3.92261818 20.5030944 4.18938182 6.54831667 12.3028364 -7.40573889 4.19010909"></polygon>
        </g>
        <path id="Path-3" d="M116.801472,37.5854705 L113.922991,32.4012846 L114.360127,32.1585676 L117.917644,38.5657056 L110.594733,38.2788086 L110.614307,37.7791919 L116.539562,38.0113315 L112.270586,35.3844403 C100.629214,29.1411349 84.2782951,26.1976914 68.6223808,27.5902173 C51.6081933,29.1035558 37.1108145,35.4758463 28.3573066,46.1584525 L27.9705622,45.8415475 C36.8187476,35.0433988 51.4403364,28.616512 68.5780829,27.0921835 C84.3273851,25.6913511 100.775697,28.6523269 112.519744,34.9511957 L116.801472,37.5854705 Z" fill="#000000" fill-rule="nonzero"></path>
        <text id="1.-presenti-nella" fill="#000000" font-family="HKGrotesk-Regular, HK Grotesk" font-size="9" font-weight="normal">
            <tspan x="95" y="55">1. presenti nella</tspan>
        </text>
        <text id="stessa-raccolta" font-family="HKGrotesk-Regular, HK Grotesk" font-size="9" font-weight="normal" fill="#000000">
            <tspan x="105" y="67">stessa raccolta</tspan>
        </text>
        <text id="2.-cronologia" fill="#000000" font-family="HKGrotesk-Regular, HK Grotesk" font-size="9" font-weight="normal">
            <tspan x="52" y="21">2. cronologia</tspan>
        </text>
    </g>
</svg>