<?xml version="1.0" encoding="utf-8"?>
<!-- Generator: Adobe Illustrator 23.0.4, SVG Export Plug-In . SVG Version: 6.00 Build 0)  -->
<svg version="1.1" xmlns="http://www.w3.org/2000/svg" xmlns:xlink="http://www.w3.org/1999/xlink" x="0px" y="0px"
	 viewBox="0 0 239.1 80" style="enable-background:new 0 0 239.1 80;" xml:space="preserve">
<style type="text/css">
	.st0{fill:#FFFFFF;}
	.st1{fill:none;stroke:#666666;stroke-width:2.5;}
	.st2{fill:none;stroke:#CCCCCC;stroke-width:0.75;}
	.st3{fill:none;stroke:#666666;stroke-width:0.75;}
	.st4{fill:#D6DBDF;stroke:#444444;stroke-width:0.25;}
	.st5{fill:#666666;stroke:#444444;stroke-width:0.25;}
	.st6{fill:none;stroke:#444444;stroke-width:0.25;}
	.st7{fill:#E9D05D;stroke:#444444;stroke-width:0.25;stroke-linejoin:round;}
	.st8{fill:#581745;stroke:#444444;stroke-width:0.25;}
	.st9{fill:#00B0B3;stroke:#444444;stroke-width:0.25;stroke-linejoin:round;}
	.st10{fill:#F0BE96;stroke:#444444;stroke-width:0.25;stroke-linejoin:round;}
	.st11{fill:#F1634B;stroke:#444444;stroke-width:0.25;stroke-linejoin:round;}
	.st12{fill:none;stroke:#000000;stroke-width:0.5;}
	.st13{fill:#E0E2E2;stroke:#444444;stroke-width:0.25;}
	.st14{fill:none;stroke:#999999;stroke-width:3.5995;}
	.st15{fill:none;stroke:#FF0033;stroke-width:3.5995;}
	.st16{fill:#CCCCFF;stroke:#444444;stroke-width:7.064354e-02;}
	.st17{fill:#FFCCCC;stroke:#444444;stroke-width:7.064354e-02;}
	.st18{fill:#0000FF;stroke:#444444;stroke-width:7.064354e-02;}
	.st19{fill:#FF0000;stroke:#444444;stroke-width:7.064354e-02;}
	.st20{fill:none;stroke:#FF0000;stroke-width:3.5995;}
	.st21{fill:none;stroke:#0000FF;stroke-width:3.5995;}
	.st22{fill:none;stroke:#000000;stroke-width:0.25;}
	.st23{fill:#FF0000;}
	.st24{fill:#0000FF;}
	.st25{fill:url(#SVGID_1_);}
	.st26{fill:url(#SVGID_2_);}
	.st27{fill:#FCE6FC;stroke:#444444;stroke-width:7.016049e-02;}
	.st28{fill:#EE82EE;stroke:#444444;stroke-width:7.016049e-02;}
	.st29{fill:url(#SVGID_3_);}
	.st30{fill:url(#SVGID_4_);}
	.st31{fill:url(#SVGID_5_);}
	.st32{fill:#CCCCFF;}
	.st33{fill:#FFCCCC;}
	.st34{fill:none;stroke:#006600;stroke-width:3.5995;}
	.st35{fill:none;stroke:#FFFF00;stroke-width:3.5995;}
	.st36{fill:none;stroke:#000000;stroke-width:3.5995;}
	.st37{fill:none;stroke:#FFA500;stroke-width:3.5;stroke-linejoin:round;}
	.st38{fill:none;stroke:#ED0707;stroke-width:3.5;stroke-linejoin:round;}
	.st39{fill:none;stroke:#666666;stroke-width:3.5;}
	.st40{fill:none;stroke:#FF00FF;stroke-width:3.5;stroke-linejoin:round;}
	.st41{fill:none;stroke:#1E90FF;stroke-width:3.5;stroke-linejoin:round;}
	.st42{fill:none;stroke:#0000FF;stroke-width:3.5;stroke-linejoin:round;}
	.st43{fill:none;stroke:#CCCCCC;stroke-width:2.5;}
	.st44{fill:#666666;stroke:#FFFFFF;stroke-width:0.9;}
	.st45{fill:#CCCCCC;stroke:#FFFFFF;stroke-width:0.9;}
	.st46{fill:url(#SVGID_6_);}
	.st47{fill:url(#SVGID_7_);}
	.st48{fill:url(#SVGID_8_);}
	.st49{fill:url(#SVGID_9_);}
	.st50{fill:url(#SVGID_10_);}
	.st51{font-family:'HKGrotesk-Regular';}
	.st52{font-size:9px;}
	.st53{enable-background:new    ;}
</style>
<g id="back">
</g>
<g id="svg">
	<g>
		<text transform="matrix(1 0 0 1 14.0305 77.7244)" class="st51 st52">lunghezza del testo</text>
		<text transform="matrix(1 0 0 1 0.6295 42.5367)" class="st53"><tspan x="0" y="0" class="st51 st52">senza </tspan><tspan x="0" y="10.8" class="st51 st52">elenchi</tspan></text>
		<text transform="matrix(1 0 0 1 73.8851 25.317)" class="st51 st52">elenchi</text>
		<text transform="matrix(1 0 0 1 -2.441406e-04 7.6049)" class="st51 st52">Quantità di elenchi nel corpus:</text>
		<path class="st14" d="M34.9,40.7c0-10.4,8.5-18.9,18.9-18.9"/>
		<path class="st14" d="M53.8,59.6c-10.4,0-18.9-8.5-18.9-18.9"/>
		<path class="st15" d="M53.8,21.8c10.4,0,18.9,8.5,18.9,18.9"/>
		<path class="st14" d="M72.8,40.7c0,10.4-8.5,18.9-18.9,18.9"/>
		<path class="st22" d="M84.9,26.4c0,5.5-4.4,9.9-9.9,9.9"/>
		<g>
			<g>
				<line class="st22" x1="33.3" y1="65" x2="74.3" y2="65"/>
				<g>
					<polygon points="34.2,66.1 34.3,65.9 33.4,65 34.3,64.2 34.2,64 33.1,65 					"/>
				</g>
				<g>
					<polygon points="73.5,66.1 73.3,65.9 74.3,65 73.3,64.2 73.5,64 74.6,65 					"/>
				</g>
			</g>
		</g>
		<line class="st22" x1="32.9" y1="61.8" x2="32.9" y2="68.3"/>
		<line class="st22" x1="74.6" y1="61.8" x2="74.6" y2="68.3"/>
		<line class="st22" x1="23.5" y1="40.3" x2="32.8" y2="40.3"/>
		<text transform="matrix(1 0 0 1 136.0485 25.3167)" class="st53"><tspan x="0" y="0" class="st51 st52">elenchi con presenza </tspan><tspan x="0" y="10.8" class="st51 st52">superiore del 5% del testo </tspan></text>
		<text transform="matrix(1 0 0 1 136.0485 55.2341)" class="st53"><tspan x="0" y="0" class="st51 st52">elenchi con presenza </tspan><tspan x="0" y="10.8" class="st51 st52">minore del 5% del testo</tspan></text>
		<line class="st15" x1="123.8" y1="23.3" x2="133.7" y2="23.3"/>
		<line class="st36" x1="123.8" y1="53.5" x2="133.7" y2="53.5"/>
	</g>
</g>
</svg>
