<?xml version="1.0" encoding="utf-8"?>
<!-- Generator: Adobe Illustrator 23.0.4, SVG Export Plug-In . SVG Version: 6.00 Build 0)  -->
<svg version="1.1" xmlns="http://www.w3.org/2000/svg" xmlns:xlink="http://www.w3.org/1999/xlink" x="0px" y="0px"
	 viewBox="0 0 210.6 82" style="enable-background:new 0 0 210.6 82;" xml:space="preserve">
<style type="text/css">
	.st0{fill:#FFFFFF;}
	.st1{fill:none;stroke:#666666;stroke-width:2.5;}
	.st2{fill:none;stroke:#CCCCCC;stroke-width:0.75;}
	.st3{fill:none;stroke:#666666;stroke-width:0.75;}
	.st4{fill:#D6DBDF;stroke:#444444;stroke-width:0.25;}
	.st5{fill:#666666;stroke:#444444;stroke-width:0.25;}
	.st6{fill:none;stroke:#444444;stroke-width:0.25;}
	.st7{fill:#E9D05D;stroke:#444444;stroke-width:0.25;stroke-linejoin:round;}
	.st8{fill:#581745;stroke:#444444;stroke-width:0.25;}
	.st9{fill:#00B0B3;stroke:#444444;stroke-width:0.25;stroke-linejoin:round;}
	.st10{fill:#F0BE96;stroke:#444444;stroke-width:0.25;stroke-linejoin:round;}
	.st11{fill:#F1634B;stroke:#444444;stroke-width:0.25;stroke-linejoin:round;}
	.st12{fill:none;stroke:#000000;stroke-width:0.5;}
	.st13{fill:#E0E2E2;stroke:#444444;stroke-width:0.25;}
	.st14{fill:none;stroke:#999999;stroke-width:3.5995;}
	.st15{fill:none;stroke:#FF0033;stroke-width:3.5995;}
	.st16{fill:#CCCCFF;stroke:#444444;stroke-width:7.064354e-02;}
	.st17{fill:#FFCCCC;stroke:#444444;stroke-width:7.064354e-02;}
	.st18{fill:#0000FF;stroke:#444444;stroke-width:7.064354e-02;}
	.st19{fill:#FF0000;stroke:#444444;stroke-width:7.064354e-02;}
	.st20{fill:none;stroke:#FF0000;stroke-width:3.5995;}
	.st21{fill:none;stroke:#0000FF;stroke-width:3.5995;}
	.st22{fill:none;stroke:#000000;stroke-width:0.25;}
	.st23{fill:#FF0000;}
	.st24{fill:#0000FF;}
	.st25{fill:url(#SVGID_1_);}
	.st26{fill:url(#SVGID_2_);}
	.st27{fill:#FCE6FC;stroke:#444444;stroke-width:7.016049e-02;}
	.st28{fill:#EE82EE;stroke:#444444;stroke-width:7.016049e-02;}
	.st29{fill:url(#SVGID_3_);}
	.st30{fill:url(#SVGID_4_);}
	.st31{fill:url(#SVGID_5_);}
	.st32{fill:#CCCCFF;}
	.st33{fill:#FFCCCC;}
	.st34{fill:none;stroke:#006600;stroke-width:3.5995;}
	.st35{fill:none;stroke:#FFFF00;stroke-width:3.5995;}
	.st36{fill:none;stroke:#000000;stroke-width:3.5995;}
	.st37{fill:none;stroke:#FFA500;stroke-width:3.5;stroke-linejoin:round;}
	.st38{fill:none;stroke:#ED0707;stroke-width:3.5;stroke-linejoin:round;}
	.st39{fill:none;stroke:#666666;stroke-width:3.5;}
	.st40{fill:none;stroke:#FF00FF;stroke-width:3.5;stroke-linejoin:round;}
	.st41{fill:none;stroke:#1E90FF;stroke-width:3.5;stroke-linejoin:round;}
	.st42{fill:none;stroke:#0000FF;stroke-width:3.5;stroke-linejoin:round;}
	.st43{fill:none;stroke:#CCCCCC;stroke-width:2.5;}
	.st44{fill:#666666;stroke:#FFFFFF;stroke-width:0.9;}
	.st45{fill:#CCCCCC;stroke:#FFFFFF;stroke-width:0.9;}
	.st46{font-family:'HKGrotesk-Regular';}
	.st47{font-size:9px;}
	.st48{fill:url(#SVGID_6_);}
	.st49{fill:url(#SVGID_7_);}
	.st50{fill:url(#SVGID_8_);}
	.st51{fill:url(#SVGID_9_);}
	.st52{fill:url(#SVGID_10_);}
</style>
<g id="back">
</g>
<g id="svg">
	<g>
		<text transform="matrix(1 0 0 1 3.3943 79.7055)" class="st46 st47">Cancellazione</text>
		<text transform="matrix(1 0 0 1 44.6288 30.6456)" class="st46 st47">Nebbia</text>
		<text transform="matrix(1 0 0 1 106.2115 7.604)"><tspan x="0" y="0" class="st46 st47">Numeri di occorrenze </tspan><tspan x="0" y="10.8" class="st46 st47">nebbia + cancellazione:</tspan></text>
		<text transform="matrix(1 0 0 1 -2.441406e-04 7.604)" class="st46 st47">Proporzione:</text>
		<path class="st20" d="M27.7,63.9C17.3,63.9,8.8,55.4,8.8,45s8.5-18.9,18.9-18.9"/>
		<path class="st21" d="M27.7,26.1c10.4,0,18.9,8.5,18.9,18.9s-8.5,18.9-18.9,18.9"/>
		<path class="st22" d="M64.8,31.9c0,8.4-6.8,15.3-15.3,15.3"/>
		<path class="st22" d="M6.5,71.2c0-4.7,2.1-8.9,5.4-11.7"/>
		<text transform="matrix(1 0 0 1 107.745 62.1539)" class="st46 st47">Poche</text>
		<text transform="matrix(1 0 0 1 189.0117 62.1539)" class="st46 st47">Tante</text>
		<g id="Group_5_" transform="translate(0.000000, 3.880600)">
			<ellipse id="Oval_5_" class="st27" cx="118.9" cy="41.8" rx="8.6" ry="5"/>
			<ellipse class="st27" cx="118.9" cy="40.6" rx="7.5" ry="4.4"/>
			<ellipse class="st27" cx="118.9" cy="39.5" rx="6.7" ry="3.8"/>
			<ellipse class="st27" cx="118.9" cy="38.3" rx="6" ry="3.5"/>
			<ellipse class="st27" cx="118.9" cy="37.2" rx="5.5" ry="3.2"/>
			<ellipse class="st27" cx="118.9" cy="36" rx="4.7" ry="2.7"/>
			<ellipse class="st27" cx="118.9" cy="34.9" rx="3.7" ry="2.1"/>
			<ellipse class="st27" cx="118.9" cy="33.7" rx="2.1" ry="1.2"/>
		</g>
		<g id="Group_4_" transform="translate(0.000000, 3.880600)">
			<ellipse id="Oval_4_" class="st28" cx="199.6" cy="41.8" rx="8.6" ry="5"/>
			<ellipse class="st28" cx="199.6" cy="40.6" rx="7.5" ry="4.4"/>
			<ellipse class="st28" cx="199.6" cy="39.5" rx="6.7" ry="3.8"/>
			<ellipse class="st28" cx="199.6" cy="38.3" rx="6" ry="3.5"/>
			<ellipse class="st28" cx="199.6" cy="37.2" rx="5.5" ry="3.2"/>
			<ellipse class="st28" cx="199.6" cy="36" rx="4.7" ry="2.7"/>
			<ellipse class="st28" cx="199.6" cy="34.9" rx="3.7" ry="2.1"/>
			<ellipse class="st28" cx="199.6" cy="33.7" rx="2.1" ry="1.2"/>
		</g>
		<linearGradient id="SVGID_1_" gradientUnits="userSpaceOnUse" x1="131.986" y1="43.7056" x2="188.3435" y2="43.7056">
			<stop  offset="0" style="stop-color:#EE82EE;stop-opacity:0.2"/>
			<stop  offset="1" style="stop-color:#EE80EE"/>
		</linearGradient>
		<rect x="132" y="38.6" class="st25" width="56.4" height="10.1"/>
	</g>
</g>
</svg>
