<?xml version="1.0" encoding="utf-8"?>
<!-- Generator: Adobe Illustrator 23.0.4, SVG Export Plug-In . SVG Version: 6.00 Build 0)  -->
<svg version="1.1" xmlns="http://www.w3.org/2000/svg" xmlns:xlink="http://www.w3.org/1999/xlink" x="0px" y="0px"
	 viewBox="0 0 177.8 78.5" style="enable-background:new 0 0 177.8 78.5;" xml:space="preserve">
<style type="text/css">
	.st0{fill:#FFFFFF;}
	.st1{fill:none;stroke:#666666;stroke-width:2.5;}
	.st2{fill:none;stroke:#CCCCCC;stroke-width:0.75;}
	.st3{fill:none;stroke:#666666;stroke-width:0.75;}
	.st4{fill:#D6DBDF;stroke:#444444;stroke-width:0.25;}
	.st5{fill:#666666;stroke:#444444;stroke-width:0.25;}
	.st6{fill:none;stroke:#444444;stroke-width:0.25;}
	.st7{fill:#E9D05D;stroke:#444444;stroke-width:0.25;stroke-linejoin:round;}
	.st8{fill:#581745;stroke:#444444;stroke-width:0.25;}
	.st9{fill:#00B0B3;stroke:#444444;stroke-width:0.25;stroke-linejoin:round;}
	.st10{fill:#F0BE96;stroke:#444444;stroke-width:0.25;stroke-linejoin:round;}
	.st11{fill:#F1634B;stroke:#444444;stroke-width:0.25;stroke-linejoin:round;}
	.st12{fill:none;stroke:#000000;stroke-width:0.5;}
	.st13{fill:#E0E2E2;stroke:#444444;stroke-width:0.25;}
	.st14{fill:none;stroke:#999999;stroke-width:3.5995;}
	.st15{fill:none;stroke:#FF0033;stroke-width:3.5995;}
	.st16{fill:#CCCCFF;stroke:#444444;stroke-width:7.064354e-02;}
	.st17{fill:#FFCCCC;stroke:#444444;stroke-width:7.064354e-02;}
	.st18{fill:#0000FF;stroke:#444444;stroke-width:7.064354e-02;}
	.st19{fill:#FF0000;stroke:#444444;stroke-width:7.064354e-02;}
	.st20{fill:none;stroke:#FF0000;stroke-width:3.5995;}
	.st21{fill:none;stroke:#0000FF;stroke-width:3.5995;}
	.st22{fill:none;stroke:#000000;stroke-width:0.25;}
	.st23{fill:#FF0000;}
	.st24{fill:#0000FF;}
	.st25{fill:url(#SVGID_1_);}
	.st26{fill:url(#SVGID_2_);}
	.st27{fill:#FCE6FC;stroke:#444444;stroke-width:7.016049e-02;}
	.st28{fill:#EE82EE;stroke:#444444;stroke-width:7.016049e-02;}
	.st29{fill:url(#SVGID_3_);}
	.st30{fill:url(#SVGID_4_);}
	.st31{fill:url(#SVGID_5_);}
	.st32{fill:#CCCCFF;}
	.st33{fill:#FFCCCC;}
	.st34{fill:none;stroke:#006600;stroke-width:3.5995;}
	.st35{fill:none;stroke:#FFFF00;stroke-width:3.5995;}
	.st36{fill:none;stroke:#000000;stroke-width:3.5995;}
	.st37{fill:none;stroke:#FFA500;stroke-width:3.5;stroke-linejoin:round;}
	.st38{fill:none;stroke:#ED0707;stroke-width:3.5;stroke-linejoin:round;}
	.st39{fill:none;stroke:#666666;stroke-width:3.5;}
	.st40{fill:none;stroke:#FF00FF;stroke-width:3.5;stroke-linejoin:round;}
	.st41{fill:none;stroke:#1E90FF;stroke-width:3.5;stroke-linejoin:round;}
	.st42{fill:none;stroke:#0000FF;stroke-width:3.5;stroke-linejoin:round;}
	.st43{fill:none;stroke:#CCCCCC;stroke-width:2.5;}
	.st44{fill:#666666;stroke:#FFFFFF;stroke-width:0.9;}
	.st45{fill:#CCCCCC;stroke:#FFFFFF;stroke-width:0.9;}
	.st46{fill:url(#SVGID_6_);}
	.st47{fill:url(#SVGID_7_);}
	.st48{fill:url(#SVGID_8_);}
	.st49{fill:url(#SVGID_9_);}
	.st50{fill:url(#SVGID_10_);}
	.st51{font-family:'HKGrotesk-Regular';}
	.st52{font-size:9px;}
</style>
<g id="back">
</g>
<g id="svg">
	<g>
		<line class="st1" x1="122.8" y1="51.6" x2="139.2" y2="51.7"/>
		<line class="st2" x1="138.1" y1="40.8" x2="145" y2="38.4"/>
		<line class="st3" x1="115.7" y1="26.3" x2="118.3" y2="23.6"/>
		<line class="st2" x1="98.2" y1="30.1" x2="100" y2="25.9"/>
		<line class="st2" x1="74.1" y1="28.9" x2="76.8" y2="32.5"/>
		<line class="st3" x1="59.9" y1="51.3" x2="66.8" y2="51.4"/>
		<line class="st3" x1="70.8" y1="74.2" x2="74.8" y2="69.4"/>
		<line class="st2" x1="98.7" y1="78.3" x2="97.1" y2="73.6"/>
		<text transform="matrix(1 0 0 1 -2.441406e-04 7.6042)"><tspan x="0" y="0" class="st51 st52">Luoghi </tspan><tspan x="0" y="10.8" class="st51 st52">contenitore</tspan><tspan x="0" y="21.6" class="st51 st52">e contenuti:</tspan></text>
		<text transform="matrix(1 0 0 1 60.0828 12.0837)" class="st51 st52">livello 1</text>
		<text transform="matrix(1 0 0 1 112.6909 12.0837)" class="st51 st52">2</text>
		<text transform="matrix(1 0 0 1 136.0825 12.0837)" class="st51 st52">3</text>
		<text transform="matrix(1 0 0 1 154.1655 53.0603)" class="st51 st52">luoghi</text>
		<path class="st43" d="M103.3,65.3c-7.6,7.6-20,7.6-27.7,0s-7.6-20,0-27.7s20-7.6,27.7,0"/>
		<path class="st1" d="M113,27.9c3.8,3.8,6.5,8.3,8.1,13.2"/>
		<path class="st1" d="M121.1,41.1c1,3.2,1.6,6.5,1.6,9.8c0.2,8.7-3.1,17.5-9.7,24.1"/>
		<path class="st1" d="M137.6,40.4c1.6,7.1,1.5,14.3-0.1,21.2"/>
		<path class="st1" d="M103.3,37.6c7.6,7.6,7.6,20,0,27.7"/>
		<circle class="st44" cx="70" cy="51.3" r="2"/>
		<circle class="st45" cx="78.7" cy="35.1" r="2"/>
		<circle class="st45" cx="97.1" cy="33.4" r="2"/>
		<circle class="st44" cx="77" cy="66.4" r="2"/>
		<circle class="st45" cx="95.9" cy="69.9" r="2"/>
		<line class="st1" x1="109.1" y1="51.5" x2="122.8" y2="51.6"/>
		<circle class="st44" cx="109.1" cy="51.5" r="2"/>
		<circle class="st44" cx="122.8" cy="51.6" r="2"/>
		<line class="st2" x1="115.7" y1="75.6" x2="118.8" y2="78.2"/>
		<circle class="st45" cx="114.2" cy="73.6" r="2"/>
		<line class="st3" x1="137.7" y1="61.5" x2="144.5" y2="64.2"/>
		<circle class="st44" cx="113.6" cy="28" r="2"/>
		<circle class="st45" cx="137.9" cy="40.8" r="2"/>
		<circle class="st44" cx="137.6" cy="61.3" r="2"/>
		<g>
			<g>
				<path class="st22" d="M153.2,50.5c-5.4,0-9.8-4.3-9.9-9.6"/>
				<g>
					<polygon points="144.4,41.6 144.2,41.8 143.3,40.9 142.5,41.9 142.3,41.7 143.3,40.6 					"/>
				</g>
			</g>
		</g>
		<g>
			<g>
				<line class="st22" x1="87.6" y1="32" x2="87.6" y2="13.8"/>
				<g>
					<polygon points="88.6,14.6 88.4,14.8 87.6,13.9 86.7,14.8 86.5,14.6 87.6,13.5 					"/>
				</g>
			</g>
		</g>
		<g>
			<g>
				<line class="st22" x1="115.2" y1="25" x2="115.2" y2="13.8"/>
				<g>
					<polygon points="116.2,14.6 116,14.8 115.2,13.9 114.4,14.8 114.2,14.6 115.2,13.5 					"/>
				</g>
			</g>
		</g>
		<g>
			<g>
				<line class="st22" x1="138.1" y1="37.6" x2="138.1" y2="13.8"/>
				<g>
					<polygon points="139.1,14.6 138.9,14.8 138.1,13.9 137.3,14.8 137.1,14.6 138.1,13.5 					"/>
				</g>
			</g>
		</g>
	</g>
</g>
</svg>
