<?xml version="1.0" encoding="utf-8"?>
<!-- Generator: Adobe Illustrator 23.0.4, SVG Export Plug-In . SVG Version: 6.00 Build 0)  -->
<svg version="1.1" xmlns="http://www.w3.org/2000/svg" xmlns:xlink="http://www.w3.org/1999/xlink" x="0px" y="0px"
	 viewBox="0 0 229.1 81.9" style="enable-background:new 0 0 229.1 81.9;" xml:space="preserve">
<style type="text/css">
	.st0{fill:#FFFFFF;}
	.st1{fill:none;stroke:#666666;stroke-width:2.5;}
	.st2{fill:none;stroke:#CCCCCC;stroke-width:0.75;}
	.st3{fill:none;stroke:#666666;stroke-width:0.75;}
	.st4{fill:#D6DBDF;stroke:#444444;stroke-width:0.25;}
	.st5{fill:#666666;stroke:#444444;stroke-width:0.25;}
	.st6{fill:none;stroke:#444444;stroke-width:0.25;}
	.st7{fill:#E9D05D;stroke:#444444;stroke-width:0.25;stroke-linejoin:round;}
	.st8{fill:#581745;stroke:#444444;stroke-width:0.25;}
	.st9{fill:#00B0B3;stroke:#444444;stroke-width:0.25;stroke-linejoin:round;}
	.st10{fill:#F0BE96;stroke:#444444;stroke-width:0.25;stroke-linejoin:round;}
	.st11{fill:#F1634B;stroke:#444444;stroke-width:0.25;stroke-linejoin:round;}
	.st12{fill:none;stroke:#000000;stroke-width:0.5;}
	.st13{fill:#E0E2E2;stroke:#444444;stroke-width:0.25;}
	.st14{fill:none;stroke:#999999;stroke-width:3.5995;}
	.st15{fill:none;stroke:#FF0033;stroke-width:3.5995;}
	.st16{fill:#CCCCFF;stroke:#444444;stroke-width:7.064354e-02;}
	.st17{fill:#FFCCCC;stroke:#444444;stroke-width:7.064354e-02;}
	.st18{fill:#0000FF;stroke:#444444;stroke-width:7.064354e-02;}
	.st19{fill:#FF0000;stroke:#444444;stroke-width:7.064354e-02;}
	.st20{fill:none;stroke:#FF0000;stroke-width:3.5995;}
	.st21{fill:none;stroke:#0000FF;stroke-width:3.5995;}
	.st22{fill:none;stroke:#000000;stroke-width:0.25;}
	.st23{fill:#FF0000;}
	.st24{fill:#0000FF;}
	.st25{fill:url(#SVGID_1_);}
	.st26{fill:url(#SVGID_2_);}
	.st27{fill:#FCE6FC;stroke:#444444;stroke-width:7.016049e-02;}
	.st28{fill:#EE82EE;stroke:#444444;stroke-width:7.016049e-02;}
	.st29{fill:url(#SVGID_3_);}
	.st30{fill:url(#SVGID_4_);}
	.st31{fill:url(#SVGID_5_);}
	.st32{fill:#CCCCFF;}
	.st33{fill:#FFCCCC;}
	.st34{fill:none;stroke:#006600;stroke-width:3.5995;}
	.st35{fill:none;stroke:#FFFF00;stroke-width:3.5995;}
	.st36{fill:none;stroke:#000000;stroke-width:3.5995;}
	.st37{fill:none;stroke:#FFA500;stroke-width:3.5;stroke-linejoin:round;}
	.st38{fill:none;stroke:#ED0707;stroke-width:3.5;stroke-linejoin:round;}
	.st39{fill:none;stroke:#666666;stroke-width:3.5;}
	.st40{fill:none;stroke:#FF00FF;stroke-width:3.5;stroke-linejoin:round;}
	.st41{fill:none;stroke:#1E90FF;stroke-width:3.5;stroke-linejoin:round;}
	.st42{fill:none;stroke:#0000FF;stroke-width:3.5;stroke-linejoin:round;}
	.st43{fill:none;stroke:#CCCCCC;stroke-width:2.5;}
	.st44{fill:#666666;stroke:#FFFFFF;stroke-width:0.9;}
	.st45{fill:#CCCCCC;stroke:#FFFFFF;stroke-width:0.9;}
	.st46{fill:url(#SVGID_6_);}
	.st47{fill:url(#SVGID_7_);}
	.st48{fill:url(#SVGID_8_);}
	.st49{fill:url(#SVGID_9_);}
	.st50{fill:url(#SVGID_10_);}
	.st51{font-family:'HKGrotesk-Regular';}
	.st52{font-size:9px;}
</style>
<g id="back">
</g>
<g id="svg">
	<g>
		<text transform="matrix(1 0 0 1 -2.441406e-04 7.7361)"><tspan x="0" y="0" class="st51 st52">Proporzione fra</tspan><tspan x="0" y="10.8" class="st51 st52">i tipi di luoghi:</tspan></text>
		<g>
			<text transform="matrix(1 0 0 1 107.0602 79.6252)" class="st51 st52">Senza ambientazione</text>
			<g>
				<text transform="matrix(1 0 0 1 86.2921 21.8826)"><tspan x="0" y="0" class="st51 st52">Generici</tspan><tspan x="-3.6" y="10.8" class="st51 st52">Terrestre</tspan></text>
			</g>
			<g>
				<text transform="matrix(1 0 0 1 86.262 51.0522)"><tspan x="0" y="0" class="st51 st52">Generici</tspan><tspan x="-18.5" y="10.8" class="st51 st52">Non-terrestri</tspan></text>
			</g>
			<g>
				<text transform="matrix(1 0 0 1 177.1301 21.8823)"><tspan x="0" y="0" class="st51 st52">Nominati </tspan><tspan x="0" y="10.8" class="st51 st52">Terrestri</tspan></text>
			</g>
			<g>
				<text transform="matrix(1 0 0 1 177.2263 51.0522)"><tspan x="0" y="0" class="st51 st52">Nominati </tspan><tspan x="0" y="10.8" class="st51 st52">Non-Terrestri</tspan></text>
			</g>
			<g>
				<text transform="matrix(1 0 0 1 128.7782 7.605)" class="st51 st52">Inventanti</text>
			</g>
			<path class="st21" d="M167.5,40.5C167.5,40.5,167.5,40.4,167.5,40.5"/>
			<path class="st37" d="M139.1,24c-5.7,3.3-9.5,9.4-9.5,16.4c0,0,0,0,0,0"/>
			<path class="st38" d="M129.6,40.5c0,7,3.8,13.1,9.5,16.4"/>
			<path class="st39" d="M139.1,56.9c2.8,1.6,6,2.5,9.5,2.5c3.5,0,6.7-0.9,9.5-2.5"/>
			<path class="st40" d="M158.1,24c-2.8-1.6-6-2.6-9.5-2.6c-3.5,0-6.7,0.9-9.5,2.5"/>
			<path class="st41" d="M167.5,40.4c0-7-3.8-13.1-9.5-16.4"/>
			<path class="st42" d="M158,56.9c5.7-3.3,9.5-9.4,9.5-16.4"/>
			<line class="st22" x1="120.5" y1="31.6" x2="128.9" y2="31.6"/>
			<line class="st22" x1="120.2" y1="50.5" x2="129.7" y2="50.5"/>
			<line class="st22" x1="168.6" y1="31.6" x2="177" y2="31.6"/>
			<line class="st22" x1="167.6" y1="50.5" x2="177" y2="50.5"/>
			<line class="st22" x1="148.4" y1="19.3" x2="148.4" y2="8.5"/>
			<line class="st22" x1="148.4" y1="72" x2="148.4" y2="62"/>
		</g>
	</g>
</g>
</svg>
