<?xml version="1.0" encoding="utf-8"?>
<!-- Generator: Adobe Illustrator 23.0.4, SVG Export Plug-In . SVG Version: 6.00 Build 0)  -->
<svg version="1.1" xmlns="http://www.w3.org/2000/svg" xmlns:xlink="http://www.w3.org/1999/xlink" x="0px" y="0px"
	 viewBox="0 0 163.9 72.9" style="enable-background:new 0 0 163.9 72.9;" xml:space="preserve">
<style type="text/css">
	.st0{fill:#FFFFFF;}
	.st1{fill:none;stroke:#666666;stroke-width:2.5;}
	.st2{fill:none;stroke:#CCCCCC;stroke-width:0.75;}
	.st3{fill:none;stroke:#666666;stroke-width:0.75;}
	.st4{fill:#D6DBDF;stroke:#444444;stroke-width:0.25;}
	.st5{fill:#666666;stroke:#444444;stroke-width:0.25;}
	.st6{fill:none;stroke:#444444;stroke-width:0.25;}
	.st7{fill:#E9D05D;stroke:#444444;stroke-width:0.25;stroke-linejoin:round;}
	.st8{fill:#581745;stroke:#444444;stroke-width:0.25;}
	.st9{fill:#00B0B3;stroke:#444444;stroke-width:0.25;stroke-linejoin:round;}
	.st10{fill:#F0BE96;stroke:#444444;stroke-width:0.25;stroke-linejoin:round;}
	.st11{fill:#F1634B;stroke:#444444;stroke-width:0.25;stroke-linejoin:round;}
	.st12{fill:none;stroke:#000000;stroke-width:0.5;}
	.st13{fill:#E0E2E2;stroke:#444444;stroke-width:0.25;}
	.st14{fill:none;stroke:#999999;stroke-width:3.5995;}
	.st15{fill:none;stroke:#FF0033;stroke-width:3.5995;}
	.st16{fill:#CCCCFF;stroke:#444444;stroke-width:7.064354e-02;}
	.st17{fill:#FFCCCC;stroke:#444444;stroke-width:7.064354e-02;}
	.st18{fill:#0000FF;stroke:#444444;stroke-width:7.064354e-02;}
	.st19{fill:#FF0000;stroke:#444444;stroke-width:7.064354e-02;}
	.st20{fill:none;stroke:#FF0000;stroke-width:3.5995;}
	.st21{fill:none;stroke:#0000FF;stroke-width:3.5995;}
	.st22{fill:none;stroke:#000000;stroke-width:0.25;}
	.st23{fill:#FF0000;}
	.st24{fill:#0000FF;}
	.st25{fill:url(#SVGID_1_);}
	.st26{fill:url(#SVGID_2_);}
	.st27{fill:#FCE6FC;stroke:#444444;stroke-width:7.016049e-02;}
	.st28{fill:#EE82EE;stroke:#444444;stroke-width:7.016049e-02;}
	.st29{fill:url(#SVGID_3_);}
	.st30{fill:url(#SVGID_4_);}
	.st31{fill:url(#SVGID_5_);}
	.st32{fill:#CCCCFF;}
	.st33{fill:#FFCCCC;}
	.st34{fill:none;stroke:#006600;stroke-width:3.5995;}
	.st35{fill:none;stroke:#FFFF00;stroke-width:3.5995;}
	.st36{fill:none;stroke:#000000;stroke-width:3.5995;}
	.st37{fill:none;stroke:#FFA500;stroke-width:3.5;stroke-linejoin:round;}
	.st38{fill:none;stroke:#ED0707;stroke-width:3.5;stroke-linejoin:round;}
	.st39{fill:none;stroke:#666666;stroke-width:3.5;}
	.st40{fill:none;stroke:#FF00FF;stroke-width:3.5;stroke-linejoin:round;}
	.st41{fill:none;stroke:#1E90FF;stroke-width:3.5;stroke-linejoin:round;}
	.st42{fill:none;stroke:#0000FF;stroke-width:3.5;stroke-linejoin:round;}
	.st43{fill:none;stroke:#CCCCCC;stroke-width:2.5;}
	.st44{fill:#666666;stroke:#FFFFFF;stroke-width:0.9;}
	.st45{fill:#CCCCCC;stroke:#FFFFFF;stroke-width:0.9;}
	.st46{fill:url(#SVGID_6_);}
	.st47{font-family:'HKGrotesk-Regular';}
	.st48{font-size:9px;}
	.st49{fill:url(#SVGID_7_);}
	.st50{fill:url(#SVGID_8_);}
	.st51{fill:url(#SVGID_9_);}
	.st52{fill:url(#SVGID_10_);}
</style>
<g id="back">
</g>
<g id="svg">
	<g>
		<text transform="matrix(1 0 0 1 59.8616 70.6296)" class="st47 st48">Poca</text>
		<text transform="matrix(1 0 0 1 -1.220703e-04 33.4684)" class="st47 st48">Nebbia</text>
		<text transform="matrix(1 0 0 1 -1.220703e-04 56.6942)" class="st47 st48">Cancellazione</text>
		<text transform="matrix(1 0 0 1 142.3583 70.6301)" class="st47 st48">Tanta</text>
		<g id="Group_15_" transform="translate(0.000000, 3.880600)">
			<ellipse id="Oval_15_" class="st16" cx="69.6" cy="27.7" rx="8.6" ry="5"/>
			<ellipse class="st16" cx="69.6" cy="26.5" rx="7.5" ry="4.4"/>
			<ellipse class="st16" cx="69.6" cy="25.4" rx="6.7" ry="3.8"/>
			<ellipse class="st16" cx="69.6" cy="24.3" rx="6" ry="3.5"/>
			<ellipse class="st16" cx="69.6" cy="23.1" rx="5.5" ry="3.2"/>
			<ellipse class="st16" cx="69.6" cy="21.9" rx="4.7" ry="2.7"/>
			<ellipse class="st16" cx="69.6" cy="20.8" rx="3.7" ry="2.1"/>
			<ellipse class="st16" cx="69.6" cy="19.6" rx="2.1" ry="1.2"/>
		</g>
		<g id="Group_14_" transform="translate(0.000000, 3.880600)">
			<ellipse id="Oval_14_" class="st17" cx="69.6" cy="50.8" rx="8.6" ry="5"/>
			<ellipse class="st17" cx="69.6" cy="49.6" rx="7.5" ry="4.4"/>
			<ellipse class="st17" cx="69.6" cy="48.5" rx="6.7" ry="3.8"/>
			<ellipse class="st17" cx="69.6" cy="47.4" rx="6" ry="3.5"/>
			<ellipse class="st17" cx="69.6" cy="46.2" rx="5.5" ry="3.2"/>
			<ellipse class="st17" cx="69.6" cy="45" rx="4.7" ry="2.7"/>
			<ellipse class="st17" cx="69.6" cy="43.9" rx="3.7" ry="2.1"/>
			<ellipse class="st17" cx="69.6" cy="42.7" rx="2.1" ry="1.2"/>
		</g>
		<g id="Group_13_" transform="translate(0.000000, 3.880600)">
			<ellipse id="Oval_13_" class="st18" cx="150.3" cy="27.7" rx="8.6" ry="5"/>
			<ellipse class="st18" cx="150.3" cy="26.5" rx="7.5" ry="4.4"/>
			<ellipse class="st18" cx="150.3" cy="25.4" rx="6.7" ry="3.8"/>
			<ellipse class="st18" cx="150.3" cy="24.3" rx="6" ry="3.5"/>
			<ellipse class="st18" cx="150.3" cy="23.1" rx="5.5" ry="3.2"/>
			<ellipse class="st18" cx="150.3" cy="21.9" rx="4.7" ry="2.7"/>
			<ellipse class="st18" cx="150.3" cy="20.8" rx="3.7" ry="2.1"/>
			<ellipse class="st18" cx="150.3" cy="19.6" rx="2.1" ry="1.2"/>
		</g>
		<g id="Group_12_" transform="translate(0.000000, 3.880600)">
			<ellipse id="Oval_12_" class="st19" cx="150.3" cy="50.8" rx="8.6" ry="5"/>
			<ellipse class="st19" cx="150.3" cy="49.6" rx="7.5" ry="4.4"/>
			<ellipse class="st19" cx="150.3" cy="48.5" rx="6.7" ry="3.8"/>
			<ellipse class="st19" cx="150.3" cy="47.4" rx="6" ry="3.5"/>
			<ellipse class="st19" cx="150.3" cy="46.2" rx="5.5" ry="3.2"/>
			<ellipse class="st19" cx="150.3" cy="45" rx="4.7" ry="2.7"/>
			<ellipse class="st19" cx="150.3" cy="43.9" rx="3.7" ry="2.1"/>
			<ellipse class="st19" cx="150.3" cy="42.7" rx="2.1" ry="1.2"/>
		</g>
		<text transform="matrix(1 0 0 1 148.1041 69.3337)" class="st47 st48"> </text>
		<linearGradient id="SVGID_1_" gradientUnits="userSpaceOnUse" x1="81.3774" y1="29.2693" x2="137.7348" y2="29.2693">
			<stop  offset="0" style="stop-color:#0000FF;stop-opacity:0.2"/>
			<stop  offset="1" style="stop-color:#0000FF"/>
		</linearGradient>
		<rect x="81.4" y="24.2" class="st25" width="56.4" height="10.1"/>
		<linearGradient id="SVGID_2_" gradientUnits="userSpaceOnUse" x1="81.3774" y1="52.7166" x2="137.7348" y2="52.7166">
			<stop  offset="0" style="stop-color:#FF0000;stop-opacity:0.2"/>
			<stop  offset="0.9996" style="stop-color:#FF0000"/>
		</linearGradient>
		<rect x="81.4" y="47.6" class="st26" width="56.4" height="10.1"/>
		<text transform="matrix(1 0 0 1 -1.220703e-04 7.6047)" class="st47 st48">Presenza dei fenomeni nel corpus:</text>
	</g>
</g>
</svg>
